# 3ds Max Wavefront OBJ Exporter v0.97b - (c)2007 guruware
# File Created: 19.02.2022 23:14:07

#
# object bridge
#

v  0.1082 0.1032 -1.0116
v  -0.0000 0.1040 -1.0116
v  -0.0000 0.1040 1.0116
v  0.1082 0.1032 1.0116
v  -0.1082 0.1032 -1.0116
v  -0.1082 0.1032 1.0116
v  0.1082 -0.1040 -1.0116
v  -0.0000 -0.1032 -1.0116
v  -0.1082 -0.1040 -1.0116
v  -0.1082 -0.1040 1.0116
v  -0.0000 -0.1032 1.0116
v  0.1082 -0.1040 1.0116
# 12 vertices

vn 0.5793 0.5749 -0.5778
vn 0.0000 0.7088 -0.7054
vn 0.0000 0.7088 0.7054
vn 0.5793 0.5749 0.5778
vn -0.5793 0.5749 -0.5778
vn -0.5793 0.5749 0.5778
vn 0.7088 0.0000 -0.7055
vn 0.0000 0.0000 -1.0000
vn -0.7088 0.0000 -0.7055
vn -0.7088 -0.0000 0.7055
vn 0.0000 -0.0000 1.0000
vn 0.7088 -0.0000 0.7055
# 12 vertex normals

vt 0.3144 -0.8687 2.6932
vt 0.0000 -0.8687 2.6956
vt 0.0000 -6.7503 2.6956
vt 0.3144 -6.7503 2.6932
vt -0.3144 -0.8687 2.6932
vt -0.3144 -6.7503 2.6932
vt 0.3144 -0.8687 2.0908
vt 0.0000 -0.8687 2.0931
vt -0.3144 -0.8687 2.0908
vt -0.3144 -6.7503 2.0908
vt 0.0000 -6.7503 2.0931
vt 0.3144 -6.7503 2.0908
# 12 texture coords

o bridge
g bridge
s off
f 1/1/1 2/2/2 3/3/3 4/4/4 
f 2/2/2 5/5/5 6/6/6 3/3/3 
f 7/7/7 8/8/8 2/2/2 1/1/1 
f 8/8/8 9/9/9 5/5/5 2/2/2 
f 9/9/9 10/10/10 6/6/6 5/5/5 
f 10/10/10 11/11/11 3/3/3 6/6/6 
f 11/11/11 12/12/12 4/4/4 3/3/3 
f 12/12/12 7/7/7 1/1/1 4/4/4 
# 8 polygons

