# 3ds Max Wavefront OBJ Exporter v0.97b - (c)2007 guruware
# File Created: 20.02.2022 15:13:38

#
# object chest
#

v  0.5763 -0.0335 0.9462
v  0.8058 -0.0335 0.9462
v  0.8058 0.6778 0.9462
v  0.5763 0.6778 0.9462
v  -0.5763 0.6778 0.9462
v  -0.8058 0.6778 0.9462
v  -0.8058 -0.0335 0.9462
v  -0.5763 -0.0335 0.9462
v  0.8058 -0.0335 -0.6890
v  0.8058 -0.0335 -0.9462
v  0.8058 0.6778 -0.9462
v  0.8058 0.6778 -0.6890
v  0.8058 0.6778 0.6890
v  0.8058 -0.0335 0.6890
v  -0.5763 -0.0335 -0.9462
v  -0.8058 -0.0335 -0.9462
v  -0.8058 0.6778 -0.9462
v  -0.5763 0.6778 -0.9462
v  0.5763 0.6778 -0.9462
v  0.5763 -0.0335 -0.9462
v  -0.8058 -0.0335 0.6890
v  -0.8058 0.6778 0.6890
v  -0.8058 0.6778 -0.6890
v  -0.8058 -0.0335 -0.6890
v  0.7185 0.6778 0.8590
v  0.5763 0.6778 0.8590
v  0.5763 0.6778 0.8925
v  0.7521 0.6778 0.8925
v  -0.5763 0.6778 0.8590
v  -0.5763 0.6778 0.8925
v  -0.7185 0.6778 0.8590
v  -0.7521 0.6778 0.8925
v  -0.7185 0.6778 0.6890
v  -0.7521 0.6778 0.6890
v  -0.7185 0.6778 -0.6890
v  -0.7521 0.6778 -0.6890
v  -0.7185 0.6778 -0.8590
v  -0.7521 0.6778 -0.8925
v  -0.5763 0.6778 -0.8590
v  -0.5763 0.6778 -0.8925
v  0.5763 0.6778 -0.8590
v  0.5763 0.6778 -0.8925
v  0.7185 0.6778 -0.8590
v  0.7521 0.6778 -0.8925
v  0.7185 0.6778 -0.6890
v  0.7521 0.6778 -0.6890
v  0.7185 0.6778 0.6890
v  0.7521 0.6778 0.6890
v  0.5763 -0.0335 0.8925
v  0.7521 -0.0335 0.8925
v  0.7521 -0.0335 0.6890
v  -0.7521 -0.0335 0.6890
v  -0.7521 -0.0335 0.8925
v  -0.5763 -0.0335 0.8925
v  0.7521 -0.0335 -0.6890
v  0.7521 -0.0335 -0.8925
v  0.5763 -0.0335 -0.8925
v  -0.5763 -0.0335 -0.8925
v  -0.7521 -0.0335 -0.8925
v  -0.7521 -0.0335 -0.6890
v  0.7185 -0.0248 0.8590
v  0.5763 -0.0248 0.8590
v  0.7185 -0.0248 -0.8590
v  0.7185 -0.0248 -0.6890
v  -0.7185 -0.0248 -0.8590
v  -0.5763 -0.0248 -0.8590
v  -0.7185 -0.0248 0.8590
v  -0.7185 -0.0248 0.6890
v  -0.5763 -0.0248 0.8590
v  0.7185 -0.0248 0.6890
v  0.5763 -0.0248 -0.8590
v  -0.7185 -0.0248 -0.6890
v  0.0000 -0.0248 0.0000
# 73 vertices

vn -0.5774 -0.5774 0.5774
vn 0.5773 -0.5774 0.5774
vn 0.5774 0.5773 0.5774
vn -0.5773 0.5774 0.5774
vn 0.5773 -0.5774 -0.5774
vn 0.5774 0.5774 -0.5774
vn -0.5774 -0.5773 -0.5774
vn -0.5773 0.5774 -0.5774
vn -0.3015 0.9045 -0.3015
vn 0.0000 0.7071 -0.7071
vn -0.3162 0.9487 0.0000
vn 0.0000 1.0000 0.0000
vn 0.3162 0.9487 0.0000
vn 0.3015 0.9045 -0.3015
vn 0.7071 0.7071 0.0000
vn 0.0000 0.9487 -0.3162
vn 0.0000 0.9487 0.3162
vn 0.3015 0.9045 0.3015
vn 0.0000 0.7071 0.7071
vn -0.3015 0.9045 0.3015
vn -0.7071 0.7071 0.0000
vn -0.7071 -0.7071 -0.0000
vn -0.0000 -1.0000 -0.0000
vn -0.0000 -0.7071 -0.7071
vn 0.7071 -0.7071 -0.0000
vn -0.0000 -0.7071 0.7071
vn -0.5774 0.5774 -0.5774
vn 0.5774 0.5774 0.5774
# 28 vertex normals

vt 0.9010 0.0000 0.0000
vt 1.0000 0.0000 0.0000
vt 1.0000 0.5000 0.0000
vt 0.9010 0.5000 0.0000
vt 0.0990 0.5000 0.0000
vt 0.0000 0.5000 0.0000
vt 0.0000 0.0000 0.0000
vt 0.0990 0.0000 0.0000
vt 0.5000 0.5000 0.0000
vt 0.6667 0.5000 0.0000
vt 0.9505 0.5000 0.0000
vt 0.0495 0.5000 0.0000
# 12 texture coords

o chest
g chest
s off
f 1/1/1 2/2/2 3/3/3 4/4/4 
f 5/5/3 6/6/4 7/7/1 8/8/2 
f 9/1/2 10/2/5 11/3/6 12/4/3 
f 13/5/6 3/6/3 2/7/2 14/8/5 
f 15/1/5 16/2/7 17/3/8 18/4/6 
f 19/5/8 11/6/6 10/7/5 20/8/7 
f 21/1/7 7/2/1 6/3/4 22/4/8 
f 23/5/4 17/6/8 16/7/7 24/8/1 
f 25/3/9 26/4/10 27/4/11 28/3/12 
f 26/4/10 29/5/10 30/5/13 27/4/11 
f 29/5/10 31/6/14 32/6/12 30/5/13 
f 31/3/14 33/4/15 34/4/16 32/3/12 
f 33/4/15 35/5/15 36/5/17 34/4/16 
f 35/5/15 37/6/18 38/6/12 36/5/17 
f 37/3/18 39/4/19 40/4/13 38/3/12 
f 39/4/19 41/5/19 42/5/11 40/4/13 
f 41/5/19 43/6/20 44/6/12 42/5/11 
f 43/3/20 45/4/21 46/4/17 44/3/12 
f 45/4/21 47/5/21 48/5/16 46/4/17 
f 47/5/21 25/6/9 28/6/12 48/5/16 
f 49/1/22 50/2/23 2/2/2 1/1/1 
f 50/7/23 51/8/24 14/8/5 2/7/2 
f 51/8/24 48/5/16 13/5/6 14/8/5 
f 48/5/16 28/6/12 3/6/3 13/5/6 
f 28/3/12 27/4/11 4/4/4 3/3/3 
f 27/4/11 49/1/22 1/1/1 4/4/4 
f 52/1/24 53/2/23 7/2/1 21/1/7 
f 53/7/23 54/8/25 8/8/2 7/7/1 
f 54/8/25 30/5/13 5/5/3 8/8/2 
f 30/5/13 32/6/12 6/6/4 5/5/3 
f 32/3/12 34/4/16 22/4/8 6/3/4 
f 34/4/16 52/1/24 21/1/7 22/4/8 
f 55/1/26 56/2/23 10/2/5 9/1/2 
f 56/7/23 57/8/22 20/8/7 10/7/5 
f 57/8/22 42/5/11 19/5/8 20/8/7 
f 42/5/11 44/6/12 11/6/6 19/5/8 
f 44/3/12 46/4/17 12/4/3 11/3/6 
f 46/4/17 55/1/26 9/1/2 12/4/3 
f 58/1/25 59/2/23 16/2/7 15/1/5 
f 59/7/23 60/8/26 24/8/1 16/7/7 
f 60/8/26 36/5/17 23/5/4 24/8/1 
f 36/5/17 38/6/12 17/6/8 23/5/4 
f 38/3/12 40/4/13 18/4/6 17/3/8 
f 40/4/13 58/1/25 15/1/5 18/4/6 
f 26/4/10 25/3/9 61/3/27 62/4/10 
f 45/4/21 43/3/20 63/3/4 64/4/21 
f 39/4/19 37/3/18 65/3/28 66/4/19 
f 33/4/15 31/3/14 67/3/6 68/4/15 
f 29/5/10 26/4/10 62/4/10 69/5/10 
f 31/6/14 29/5/10 69/5/10 67/6/6 
f 47/5/21 45/4/21 64/4/21 70/5/21 
f 25/6/9 47/5/21 70/5/21 61/6/27 
f 41/5/19 39/4/19 66/4/19 71/5/19 
f 43/6/20 41/5/19 71/5/19 63/6/4 
f 35/5/15 33/4/15 68/4/15 72/5/15 
f 37/6/18 35/5/15 72/5/15 65/6/28 
f 62/4/10 61/3/27 73/9/12 
f 64/4/21 63/3/4 73/9/12 
f 66/4/19 65/3/28 73/10/12 
f 68/4/15 67/3/6 73/11/12 
f 69/5/10 62/4/10 73/9/12 
f 67/6/6 69/5/10 73/9/12 
f 70/5/21 64/4/21 73/9/12 
f 61/6/27 70/5/21 73/9/12 
f 71/5/19 66/4/19 73/10/12 
f 63/6/4 71/5/19 73/6/12 
f 72/5/15 68/4/15 73/12/12 
f 65/6/28 72/5/15 73/12/12 
# 56 polygons - 12 triangles

#
# object chest_2
#

v  -0.5763 -0.0335 0.6890
v  0.5763 -0.0335 0.6890
v  0.5763 -0.0335 0.8925
v  -0.5763 -0.0335 0.8925
v  0.5763 0.6778 0.8925
v  -0.5763 0.6778 0.8925
v  0.7521 -0.0335 0.6890
v  0.7521 -0.0335 -0.6890
v  0.7521 0.6778 -0.6890
v  0.7521 0.6778 0.6890
v  0.5763 -0.0335 -0.8925
v  -0.5763 -0.0335 -0.8925
v  -0.5763 0.6778 -0.8925
v  0.5763 0.6778 -0.8925
v  -0.7521 -0.0335 -0.6890
v  -0.7521 -0.0335 0.6890
v  -0.7521 0.6778 0.6890
v  -0.7521 0.6778 -0.6890
v  0.5763 -0.0335 -0.6890
v  -0.5763 -0.0335 -0.6890
v  0.7521 -0.0335 -0.8925
v  0.7521 -0.0335 0.8925
v  -0.7521 -0.0335 0.8925
v  -0.7521 -0.0335 -0.8925
# 24 vertices

vn -0.0000 -1.0000 -0.0000
vn -0.0000 -0.8944 0.4472
vn -0.0000 -0.0000 1.0000
vn 0.4472 -0.8944 -0.0000
vn 1.0000 -0.0000 -0.0000
vn -0.0000 -0.8944 -0.4472
vn 0.0000 0.0000 -1.0000
vn -0.4472 -0.8944 -0.0000
vn -1.0000 0.0000 0.0000
# 9 vertex normals

vt 0.8832 0.0990 0.0000
vt 0.1168 0.0990 0.0000
vt 0.0990 0.0000 0.0000
vt 0.9010 0.0000 0.0000
vt 0.9010 0.5000 0.0000
vt 0.0990 0.5000 0.0000
vt 0.9010 1.0000 0.0000
vt 0.0990 1.0000 0.0000
vt 0.1168 0.9010 0.0000
vt 0.8832 0.9010 0.0000
vt 0.0000 1.0000 0.0000
vt 0.0000 0.9010 0.0000
vt 0.0000 0.0990 0.0000
vt 0.0000 0.0000 0.0000
vt 1.0000 0.0000 0.0000
vt 1.0000 0.0990 0.0000
vt 1.0000 0.9010 0.0000
vt 1.0000 1.0000 0.0000
# 18 texture coords

o chest_2
g chest_2
s off
f 74/13/29 75/14/29 76/15/30 77/16/30 
f 77/15/30 76/16/30 78/17/31 79/18/31 
f 80/15/32 81/16/32 82/17/33 83/18/33 
f 84/15/34 85/16/34 86/17/35 87/18/35 
f 88/15/36 89/16/36 90/17/37 91/18/37 
f 85/19/34 84/20/34 92/21/29 93/22/29 
f 75/14/29 74/13/29 93/22/29 92/21/29 
f 84/20/34 94/23/29 81/24/32 92/21/29 
f 92/21/29 81/24/32 80/25/32 75/14/29 
f 75/14/29 80/25/32 95/26/29 76/15/30 
f 77/16/30 96/27/29 89/28/36 74/13/29 
f 74/13/29 89/28/36 88/29/36 93/22/29 
f 93/22/29 88/29/36 97/30/29 85/19/34 
# 13 polygons

#
# object chest_3
#

v  0.8755 0.5561 1.0210
v  0.8764 0.9002 1.0206
v  -0.8764 0.9002 1.0206
v  -0.8755 0.5561 1.0210
v  -0.8755 0.5561 -1.0210
v  -0.8764 0.9002 -1.0206
v  0.8764 0.9002 -1.0206
v  0.8755 0.5561 -1.0210
v  -0.6069 0.5565 0.7255
v  0.6069 0.5565 0.7255
v  0.6069 0.5565 -0.7255
v  -0.6069 0.5565 -0.7255
v  0.8018 1.1007 1.0206
v  0.5324 1.3409 1.0206
v  -0.5324 1.3409 1.0206
v  -0.8018 1.1007 1.0206
v  -0.8018 1.1007 -1.0206
v  -0.5324 1.3409 -1.0206
v  0.5324 1.3409 -1.0206
v  0.8018 1.1007 -1.0206
v  0.3636 1.5120 1.0206
v  -0.3636 1.5120 1.0206
v  -0.3636 1.5120 -1.0206
v  0.3636 1.5120 -1.0206
v  0.0000 1.6377 1.0165
v  0.0000 1.6377 -1.0165
v  0.8705 0.8989 0.6955
v  0.8813 0.5561 0.6955
v  0.8753 0.5614 -0.6955
v  0.8705 0.8989 -0.6955
v  -0.8705 0.8989 -0.6955
v  -0.8813 0.5561 -0.6955
v  -0.8753 0.5614 0.6955
v  -0.8705 0.8989 0.6955
v  0.5370 1.3439 0.6955
v  0.7979 1.0983 0.6955
v  0.7979 1.0983 -0.6955
v  0.5370 1.3439 -0.6955
v  -0.5370 1.3439 -0.6955
v  -0.7979 1.0983 -0.6955
v  -0.7979 1.0983 0.6955
v  -0.5370 1.3439 0.6955
v  0.3594 1.5055 0.6955
v  0.3594 1.5055 -0.6955
v  -0.3593 1.5055 -0.6955
v  -0.3593 1.5055 0.6955
v  0.0000 1.6377 0.6955
v  0.0000 1.6377 -0.6955
v  0.6070 0.6131 -0.7256
v  0.6070 0.6131 -0.1699
v  0.4723 1.2727 -0.1699
v  0.4723 1.2727 -0.7256
v  -0.6070 0.6131 0.7256
v  -0.6070 0.6131 0.1699
v  -0.4723 1.2727 0.1699
v  -0.4723 1.2727 0.7256
v  0.0000 1.5141 -0.1699
v  0.0000 1.5141 -0.7256
v  0.0000 1.5141 0.1699
v  0.0000 1.5141 0.7256
v  0.6070 0.6131 0.7256
v  0.8177 0.6129 0.6955
v  0.8140 0.8859 0.6955
v  0.7466 1.0673 0.6955
v  0.4890 1.3128 0.6955
v  0.3285 1.4583 0.6955
v  0.0000 1.5811 0.6955
v  -0.3285 1.4583 0.6955
v  -0.4890 1.3128 0.6955
v  -0.7466 1.0673 0.6955
v  -0.8140 0.8859 0.6955
v  -0.8177 0.6129 0.6955
v  -0.6070 0.6131 -0.7256
v  -0.8177 0.6129 -0.6955
v  -0.8140 0.8859 -0.6955
v  -0.7466 1.0673 -0.6955
v  -0.4890 1.3128 -0.6955
v  -0.3285 1.4583 -0.6955
v  0.0000 1.5811 -0.6955
v  0.3285 1.4583 -0.6955
v  0.4890 1.3128 -0.6955
v  0.7466 1.0673 -0.6955
v  0.8140 0.8859 -0.6955
v  0.8177 0.6129 -0.6955
v  0.6070 0.6131 0.1699
v  0.4723 1.2727 0.7256
v  0.4723 1.2727 0.1699
v  -0.6070 0.6131 -0.1699
v  -0.4723 1.2727 -0.7256
v  -0.4723 1.2727 -0.1699
v  0.8705 0.8989 -0.2135
v  0.8705 0.8989 0.2135
v  0.8744 0.6139 0.2135
v  0.8744 0.6139 -0.2135
v  -0.8705 0.8989 0.2135
v  -0.8705 0.8989 -0.2135
v  -0.8744 0.6139 -0.2135
v  -0.8744 0.6139 0.2135
v  0.5370 1.3439 -0.2135
v  0.5370 1.3439 0.2135
v  0.7979 1.0983 0.2135
v  0.7979 1.0983 -0.2135
v  -0.5370 1.3439 0.2135
v  -0.5370 1.3439 -0.2135
v  -0.7979 1.0983 -0.2135
v  -0.7979 1.0983 0.2135
v  0.3592 1.5058 -0.2135
v  0.3592 1.5058 0.2135
v  -0.3592 1.5058 0.2135
v  -0.3592 1.5058 -0.2135
v  0.0000 1.6400 -0.2135
v  -0.0000 1.6400 0.2135
v  0.8177 0.6129 -0.2135
v  0.8140 0.8859 -0.2135
v  0.7466 1.0673 -0.2135
v  0.4890 1.3128 -0.2135
v  0.3285 1.4583 -0.2135
v  0.0000 1.5811 -0.2135
v  -0.3285 1.4583 -0.2135
v  -0.4890 1.3128 -0.2135
v  -0.7466 1.0673 -0.2135
v  -0.8140 0.8859 -0.2135
v  -0.8177 0.6129 -0.2135
v  -0.8177 0.6129 0.2135
v  -0.8140 0.8859 0.2135
v  -0.7466 1.0673 0.2135
v  -0.4890 1.3128 0.2135
v  -0.3285 1.4583 0.2135
v  0.0000 1.5811 0.2135
v  0.3285 1.4583 0.2135
v  0.4890 1.3128 0.2135
v  0.7466 1.0673 0.2135
v  0.8140 0.8859 0.2135
v  0.8177 0.6129 0.2135
# 134 vertices

vn 0.5707 -0.5789 0.5824
vn 0.7377 0.1323 0.6620
vn -0.7377 0.1323 0.6620
vn -0.5772 -0.5798 0.5751
vn -0.5707 -0.5789 -0.5824
vn -0.7377 0.1323 -0.6620
vn 0.7377 0.1323 -0.6620
vn 0.5772 -0.5798 -0.5751
vn 0.0347 -0.7196 -0.6935
vn -0.0381 -0.7188 -0.6942
vn -0.0347 -0.7196 0.6935
vn 0.0381 -0.7188 0.6942
vn 0.6264 0.4279 0.6516
vn 0.4782 0.5029 0.7200
vn -0.4782 0.5029 0.7200
vn -0.6264 0.4279 0.6516
vn -0.6264 0.4279 -0.6516
vn -0.4782 0.5029 -0.7200
vn 0.4782 0.5029 -0.7200
vn 0.6264 0.4279 -0.6516
vn 0.4044 0.6428 0.6506
vn -0.4044 0.6428 0.6506
vn -0.4044 0.6428 -0.6506
vn 0.4044 0.6428 -0.6506
vn 0.0000 0.7787 0.6274
vn 0.0000 0.7787 -0.6274
vn 0.7200 0.1386 -0.6799
vn 0.5754 -0.5738 -0.5828
vn 0.5693 -0.5686 0.5938
vn 0.7228 0.1327 0.6782
vn -0.7200 0.1386 0.6799
vn -0.5754 -0.5738 0.5828
vn -0.5693 -0.5686 -0.5938
vn -0.7228 0.1327 -0.6782
vn 0.4854 0.5246 -0.6994
vn 0.6247 0.4115 -0.6637
vn 0.6247 0.4115 0.6637
vn 0.4854 0.5246 0.6994
vn -0.4854 0.5246 0.6994
vn -0.6247 0.4115 0.6637
vn -0.6247 0.4115 -0.6637
vn -0.4854 0.5246 -0.6994
vn 0.3826 0.6306 -0.6752
vn 0.3826 0.6306 0.6752
vn -0.3826 0.6306 0.6752
vn -0.3826 0.6306 -0.6752
vn 0.0000 0.7708 -0.6370
vn 0.0000 0.7709 0.6370
vn -0.4890 -0.0865 0.8680
vn -0.9798 -0.2001 0.0000
vn -0.7962 -0.6051 -0.0000
vn -0.7962 -0.6051 0.0000
vn 0.4890 -0.0865 -0.8680
vn 0.9798 -0.2001 0.0000
vn 0.7962 -0.6051 -0.0000
vn 0.7962 -0.6051 0.0000
vn -0.0000 -1.0000 -0.0000
vn -0.0000 -1.0000 0.0000
vn -0.4890 -0.0865 -0.8680
vn -0.0715 -0.0800 -0.9942
vn 0.0000 0.0000 -1.0000
vn 0.0000 -0.0000 -1.0000
vn -0.0000 -0.0000 -1.0000
vn 0.0715 -0.0800 -0.9942
vn 0.4890 -0.0865 0.8680
vn 0.0715 -0.0800 0.9942
vn 0.0000 0.0000 1.0000
vn -0.0000 -0.0000 1.0000
vn -0.0000 0.0000 1.0000
vn -0.0715 -0.0800 0.9942
vn 0.9798 -0.2001 -0.0000
vn 0.7290 0.1337 -0.6714
vn 0.7289 0.1337 0.6714
vn 0.5862 -0.5681 0.5776
vn 0.5862 -0.5681 -0.5776
vn -0.7290 0.1337 0.6714
vn -0.7289 0.1337 -0.6714
vn -0.5862 -0.5681 -0.5776
vn -0.5862 -0.5681 0.5776
vn 0.4816 0.5202 -0.7053
vn 0.4816 0.5202 0.7053
vn 0.6285 0.4139 0.6585
vn 0.6284 0.4139 -0.6586
vn -0.4816 0.5202 0.7053
vn -0.4816 0.5202 -0.7053
vn -0.6285 0.4139 -0.6585
vn -0.6284 0.4139 0.6586
vn 0.3883 0.6360 -0.6668
vn 0.3883 0.6360 0.6668
vn -0.3883 0.6360 0.6668
vn -0.3883 0.6360 -0.6668
vn 0.0000 0.7715 -0.6362
vn -0.0000 0.7715 0.6362
vn 0.0125 -0.7079 -0.7062
vn -0.0000 0.0000 -1.0000
vn -0.0125 -0.7079 -0.7062
vn -0.0125 -0.7079 0.7062
vn 0.0000 -0.0000 1.0000
vn 0.0125 -0.7079 0.7062
# 99 vertex normals

vt 1.0000 0.5000 0.0000
vt 1.0000 0.6250 0.0000
vt 0.0000 0.6250 0.0000
vt 0.0000 0.5000 0.0000
vt 1.0000 0.7500 0.0000
vt 1.0000 0.8750 0.0000
vt 0.0000 0.8750 0.0000
vt 0.0000 0.7500 0.0000
vt 1.0000 0.9375 0.0000
vt 0.0000 0.9375 0.0000
vt 0.5000 1.0000 0.0000
vt 0.1392 0.6250 0.0000
vt 0.1392 0.5000 0.0000
vt 0.8608 0.5000 0.0000
vt 0.8608 0.6250 0.0000
vt 0.1392 0.8750 0.0000
vt 0.1392 0.7500 0.0000
vt 0.8608 0.7500 0.0000
vt 0.8608 0.8750 0.0000
vt 0.1392 0.9375 0.0000
vt 0.8608 0.9375 0.0000
vt 0.1392 1.0000 0.0000
vt 0.0000 1.0000 0.0000
vt 1.0000 1.0000 0.0000
vt 0.8608 1.0000 0.0000
vt 0.5312 0.5000 0.0000
vt 0.6804 0.6804 0.0000
vt 0.4889 0.5422 0.0000
vt 0.3296 0.5000 0.0000
vt 0.5881 0.6250 0.0000
vt 0.4119 0.6250 0.0000
vt 0.4119 0.5000 0.0000
vt 0.5881 0.5000 0.0000
vt 0.5881 0.8750 0.0000
vt 0.4119 0.8750 0.0000
vt 0.4119 0.7500 0.0000
vt 0.5881 0.7500 0.0000
vt 0.5881 0.9375 0.0000
vt 0.4119 0.9375 0.0000
vt 0.5881 1.0000 0.0000
vt 0.4119 1.0000 0.0000
vt 0.5881 0.9389 0.0000
# 42 texture coords

o chest_3
g chest_3
s off
f 98/31/38 99/32/39 100/33/40 101/34/41 
f 102/31/42 103/32/43 104/33/44 105/34/45 
f 106/34/46 107/31/47 98/31/38 101/34/41 
f 108/34/48 109/31/49 102/31/42 105/34/45 
f 110/35/50 111/36/51 112/37/52 113/38/53 
f 114/35/54 115/36/55 116/37/56 117/38/57 
f 111/36/51 118/39/58 119/40/59 112/37/52 
f 115/36/55 120/39/60 121/40/61 116/37/56 
f 99/32/39 110/35/50 113/38/53 100/33/40 
f 103/32/43 114/35/54 117/38/57 104/33/44 
f 118/39/58 122/41/62 119/40/59 
f 120/39/60 123/41/63 121/40/61 
f 124/42/64 99/33/39 98/34/38 125/43/65 
f 126/44/66 105/31/45 104/32/44 127/45/67 
f 128/42/68 103/33/43 102/34/42 129/43/69 
f 130/44/70 101/31/41 100/32/40 131/45/71 
f 108/44/48 105/31/45 126/44/66 
f 125/43/65 98/34/38 107/34/47 
f 106/44/46 101/31/41 130/44/70 
f 129/43/69 102/34/42 109/34/49 
f 132/46/72 111/37/51 110/38/50 133/47/73 
f 134/48/74 117/35/57 116/36/56 135/49/75 
f 136/46/76 115/37/55 114/38/54 137/47/77 
f 138/48/78 113/35/53 112/36/52 139/49/79 
f 140/50/80 118/40/58 111/37/51 132/46/72 
f 135/49/75 116/36/56 121/39/61 141/51/81 
f 142/50/82 120/40/60 115/37/55 136/46/76 
f 139/49/79 112/36/52 119/39/59 143/51/83 
f 133/47/73 110/38/50 99/33/39 124/42/64 
f 127/45/67 104/32/44 117/35/57 134/48/74 
f 137/47/77 114/38/54 103/33/43 128/42/68 
f 131/45/71 100/32/40 113/35/53 138/48/78 
f 144/52/84 122/53/62 118/40/58 140/50/80 
f 141/51/81 121/39/61 123/54/63 145/55/85 
f 145/52/85 123/53/63 120/40/60 142/50/82 
f 143/51/83 119/39/59 122/54/62 144/55/84 
f 146/44/86 147/56/87 148/56/88 149/44/89 
f 150/57/90 151/58/91 152/56/92 153/44/93 
f 149/44/89 148/56/88 154/56/94 155/44/95 
f 153/44/93 152/56/92 156/56/94 157/44/95 
f 150/34/90 158/31/96 107/31/47 106/34/46 
f 158/34/96 159/43/97 125/43/65 107/34/47 
f 159/43/97 160/42/98 124/42/64 125/43/65 
f 160/42/98 161/47/98 133/47/73 124/42/64 
f 161/47/98 162/46/98 132/46/72 133/47/73 
f 162/46/98 163/50/98 140/50/80 132/46/72 
f 163/50/98 164/52/99 144/52/84 140/50/80 
f 164/48/99 165/51/98 143/51/83 144/55/84 
f 165/51/98 166/49/98 139/49/79 143/51/83 
f 166/49/98 167/48/98 138/48/78 139/49/79 
f 167/48/98 168/45/100 131/45/71 138/48/78 
f 168/45/100 169/44/101 130/44/70 131/45/71 
f 169/44/101 150/57/90 106/44/46 130/44/70 
f 146/34/86 170/31/102 109/31/49 108/34/48 
f 170/34/102 171/43/103 129/43/69 109/34/49 
f 171/43/103 172/42/104 128/42/68 129/43/69 
f 172/42/104 173/47/105 137/47/77 128/42/68 
f 173/47/105 174/46/105 136/46/76 137/47/77 
f 174/46/105 175/50/105 142/50/82 136/46/76 
f 175/50/105 176/52/106 145/52/85 142/50/82 
f 176/55/106 177/51/105 141/51/81 145/55/85 
f 177/51/105 178/49/105 135/49/75 141/51/81 
f 178/49/105 179/48/105 134/48/74 135/49/75 
f 179/48/105 180/45/105 127/45/67 134/48/74 
f 180/45/105 181/44/107 126/44/66 127/45/67 
f 181/44/107 146/44/86 108/44/48 126/44/66 
f 182/59/87 158/34/96 183/34/89 184/59/88 
f 185/59/108 170/34/102 186/34/93 187/59/92 
f 184/59/88 183/34/89 157/34/95 156/59/94 
f 187/59/92 186/34/93 155/34/95 154/59/94 
f 188/60/109 189/61/110 190/62/111 191/63/112 
f 192/60/113 193/61/114 194/62/115 195/63/116 
f 196/64/117 197/65/118 198/66/119 199/67/120 
f 200/64/121 201/65/122 202/66/123 203/67/124 
f 204/68/125 205/69/126 197/65/118 196/64/117 
f 206/68/127 207/69/128 201/65/122 200/64/121 
f 199/67/120 198/66/119 189/61/110 188/60/109 
f 203/67/124 202/66/123 193/61/114 192/60/113 
f 208/70/129 209/71/130 205/69/126 204/68/125 
f 209/72/130 208/71/129 207/69/128 206/68/127 
f 147/56/87 182/59/87 184/59/88 148/56/88 
f 151/58/91 185/59/108 187/59/92 152/56/92 
f 148/56/88 184/59/88 156/59/94 154/56/94 
f 152/56/92 187/59/92 154/59/94 156/56/94 
f 210/63/131 211/60/132 188/60/109 191/63/112 
f 211/60/132 212/67/98 199/67/120 188/60/109 
f 212/67/98 213/64/132 196/64/117 199/67/120 
f 213/64/132 214/68/98 204/68/125 196/64/117 
f 214/68/98 215/70/98 208/70/129 204/68/125 
f 215/71/98 216/69/132 207/69/128 208/71/129 
f 216/69/132 217/65/98 201/65/122 207/69/128 
f 217/65/98 218/66/132 202/66/123 201/65/122 
f 218/66/132 219/61/99 193/61/114 202/66/123 
f 219/61/99 220/62/133 194/62/115 193/61/114 
f 220/62/133 221/63/134 195/63/116 194/62/115 
f 221/63/134 222/60/106 192/60/113 195/63/116 
f 222/60/106 223/67/135 203/67/124 192/60/113 
f 223/67/135 224/64/105 200/64/121 203/67/124 
f 224/64/105 225/68/135 206/68/127 200/64/121 
f 225/68/135 226/72/105 209/72/130 206/68/127 
f 226/71/105 227/69/105 205/69/126 209/71/130 
f 227/69/105 228/65/135 197/65/118 205/69/126 
f 228/65/135 229/66/105 198/66/119 197/65/118 
f 229/66/105 230/61/135 189/61/110 198/66/119 
f 230/61/135 231/62/136 190/62/111 189/61/110 
f 231/62/136 210/63/131 191/63/112 190/62/111 
# 100 polygons - 6 triangles

#
# object chest_4
#

v  0.8140 0.8859 -0.6955
v  0.8140 0.8859 -0.2135
v  0.8177 0.6129 -0.2135
v  0.8177 0.6129 -0.6955
v  -0.8140 0.8859 0.6955
v  -0.8140 0.8859 0.2135
v  -0.8177 0.6129 0.2135
v  -0.8177 0.6129 0.6955
v  0.6070 0.6131 0.7256
v  0.6070 0.6131 0.1699
v  0.8177 0.6129 0.2135
v  0.8177 0.6129 0.6955
v  -0.6070 0.6131 -0.7256
v  -0.6070 0.6131 -0.1699
v  -0.8177 0.6129 -0.2135
v  -0.8177 0.6129 -0.6955
v  0.4890 1.3128 -0.6955
v  0.4890 1.3128 -0.2135
v  0.7466 1.0673 -0.2135
v  0.7466 1.0673 -0.6955
v  -0.4890 1.3128 0.6955
v  -0.4890 1.3128 0.2135
v  -0.7466 1.0673 0.2135
v  -0.7466 1.0673 0.6955
v  0.3285 1.4583 -0.6955
v  0.3285 1.4583 -0.2135
v  -0.3285 1.4583 0.6955
v  -0.3285 1.4583 0.2135
v  0.0000 1.5811 -0.6955
v  0.0000 1.5811 -0.2135
v  0.0000 1.5811 0.6955
v  0.0000 1.5811 0.2135
v  -0.6070 0.6131 0.7256
v  -0.4723 1.2727 0.7256
v  0.4723 1.2727 0.7256
v  0.6070 0.6131 -0.7256
v  0.4723 1.2727 -0.7256
v  -0.4723 1.2727 -0.7256
v  0.0000 1.5141 0.7256
v  0.0000 1.5141 -0.7256
v  0.8140 0.8859 0.2135
v  0.8140 0.8859 0.6955
v  -0.8140 0.8859 -0.2135
v  -0.8140 0.8859 -0.6955
v  0.6070 0.6131 -0.1699
v  -0.6070 0.6131 0.1699
v  0.4890 1.3128 0.2135
v  0.4890 1.3128 0.6955
v  0.7466 1.0673 0.6955
v  0.7466 1.0673 0.2135
v  -0.4890 1.3128 -0.2135
v  -0.4890 1.3128 -0.6955
v  -0.7466 1.0673 -0.6955
v  -0.7466 1.0673 -0.2135
v  0.3285 1.4583 0.2135
v  0.3285 1.4583 0.6955
v  -0.3285 1.4583 -0.2135
v  -0.3285 1.4583 -0.6955
# 58 vertices

vn 0.9830 0.1836 0.0000
vn 0.4486 -0.8937 0.0000
vn 0.6800 -0.7332 0.0000
vn -0.9830 0.1836 0.0000
vn -0.4486 -0.8937 0.0000
vn -0.6800 -0.7332 0.0000
vn -0.0010 -0.7221 -0.6918
vn -0.0014 -1.0000 0.0000
vn 0.4486 -0.8937 -0.0000
vn 0.6800 -0.7332 -0.0000
vn 0.0010 -0.7221 0.6918
vn 0.0014 -1.0000 -0.0000
vn -0.4486 -0.8937 -0.0000
vn -0.6800 -0.7332 -0.0000
vn 0.6809 0.7324 0.0000
vn 0.8350 0.5503 0.0000
vn -0.6809 0.7324 0.0000
vn -0.8350 0.5503 0.0000
vn 0.5202 0.8541 0.0000
vn 0.5202 0.8540 0.0000
vn -0.5202 0.8540 0.0000
vn -0.0001 1.0000 0.0000
vn 0.0000 1.0000 0.0000
vn 0.0001 1.0000 0.0000
vn 0.0010 -0.7221 -0.6918
vn 0.0000 -0.0000 -1.0000
vn -0.0010 -0.7221 0.6918
vn -0.0000 0.0000 1.0000
vn 0.0014 -1.0000 0.0000
# 29 vertex normals

vt 0.8608 0.6250 0.0000
vt 0.5881 0.6250 0.0000
vt 0.5881 0.5000 0.0000
vt 0.8608 0.5000 0.0000
vt 0.0000 0.5000 0.0000
vt 0.3296 0.5000 0.0000
vt 0.4119 0.5000 0.0000
vt 0.1392 0.5000 0.0000
vt 0.8608 0.8750 0.0000
vt 0.5881 0.8750 0.0000
vt 0.5881 0.7500 0.0000
vt 0.8608 0.7500 0.0000
vt 0.8608 0.9375 0.0000
vt 0.5881 0.9375 0.0000
vt 0.8608 1.0000 0.0000
vt 0.5881 1.0000 0.0000
vt 0.5881 0.9389 0.0000
vt 1.0000 0.5000 0.0000
vt 0.5000 0.5000 0.0000
vt 0.4119 0.6250 0.0000
vt 0.1392 0.6250 0.0000
vt 0.5312 0.5000 0.0000
vt 0.4889 0.5422 0.0000
vt 0.6804 0.6804 0.0000
vt 0.4119 0.8750 0.0000
vt 0.1392 0.8750 0.0000
vt 0.1392 0.7500 0.0000
vt 0.4119 0.7500 0.0000
vt 0.4119 0.9375 0.0000
vt 0.1392 0.9375 0.0000
vt 0.4119 1.0000 0.0000
vt 0.1392 1.0000 0.0000
# 32 texture coords

o chest_4
g chest_4
s off
f 232/73/137 233/74/137 234/75/138 235/76/139 
f 236/73/140 237/74/140 238/75/141 239/76/142 
f 240/77/143 241/78/144 242/79/145 243/80/146 
f 244/77/147 245/78/148 246/79/149 247/80/150 
f 248/81/151 249/82/151 250/83/152 251/84/152 
f 252/81/153 253/82/153 254/83/154 255/84/154 
f 256/85/155 257/86/156 249/82/151 248/81/151 
f 258/85/157 259/86/157 253/82/153 252/81/153 
f 251/84/152 250/83/152 233/74/137 232/73/137 
f 255/84/154 254/83/154 237/74/140 236/73/140 
f 260/87/158 261/88/159 257/86/156 256/85/155 
f 262/84/160 263/89/159 259/86/157 258/85/157 
f 240/90/143 264/77/161 265/77/162 266/90/162 
f 244/90/147 267/77/163 268/77/164 269/90/164 
f 266/90/162 265/77/162 270/91/162 
f 269/90/164 268/77/164 271/91/164 
f 272/92/137 273/93/137 243/80/146 242/79/145 
f 274/92/140 275/93/140 247/80/150 246/79/149 
f 276/94/144 267/76/163 235/76/139 234/75/138 
f 277/95/165 264/96/161 239/76/142 238/75/141 
f 278/97/151 279/98/151 280/99/152 281/100/152 
f 282/97/153 283/98/153 284/99/154 285/100/154 
f 286/101/156 287/102/156 279/98/151 278/97/151 
f 288/101/157 289/102/157 283/98/153 282/97/153 
f 281/100/152 280/99/152 273/93/137 272/92/137 
f 285/100/154 284/99/154 275/93/140 274/92/140 
f 263/103/159 262/104/160 287/102/156 286/101/156 
f 261/103/159 260/104/158 289/102/157 288/101/157 
f 241/78/144 276/94/144 234/75/138 242/79/145 
f 245/78/148 277/95/165 238/75/141 246/79/149 
# 28 polygons - 2 triangles

