# 3ds Max Wavefront OBJ Exporter v0.97b - (c)2007 guruware
# File Created: 19.02.2022 23:14:38

#
# object edge
#

v  0.3070 0.0150 0.0003
v  0.2171 0.0150 -0.2979
v  0.2016 0.0150 -0.2773
v  0.2853 0.0150 0.0003
v  -0.0000 0.0150 -0.2990
v  -0.0000 0.0150 -0.2783
v  -0.2171 0.0150 -0.2979
v  -0.2016 0.0150 -0.2773
v  -0.3070 0.0150 0.0003
v  -0.2853 0.0150 0.0003
v  -0.2171 0.0150 0.2986
v  -0.2016 0.0150 0.2780
v  -0.1082 0.0150 0.2990
v  -0.1075 0.0150 0.2783
v  0.2171 0.0150 0.2986
v  0.2016 0.0150 0.2780
v  0.1090 0.0150 0.2990
v  0.1077 0.0150 0.2783
v  0.3070 -0.0150 0.0003
v  0.2171 -0.0150 -0.2979
v  -0.0000 -0.0150 -0.2990
v  -0.2171 -0.0150 -0.2979
v  -0.3070 -0.0150 0.0003
v  -0.2171 -0.0150 0.2986
v  -0.1082 -0.0150 0.2990
v  -0.1075 -0.0150 0.2783
v  -0.2016 -0.0150 0.2780
v  -0.2853 -0.0150 0.0003
v  -0.2016 -0.0150 -0.2773
v  -0.0000 -0.0150 -0.2783
v  0.2016 -0.0150 -0.2773
v  0.2853 -0.0150 0.0003
v  0.2016 -0.0150 0.2780
v  0.1077 -0.0150 0.2783
v  0.1090 -0.0150 0.2990
v  0.2171 -0.0150 0.2986
# 36 vertices

vn 0.7620 0.6475 -0.0000
vn 0.4811 0.5946 -0.6442
vn -0.2971 0.8679 0.3980
vn -0.6280 0.7782 0.0000
vn 0.0000 0.7060 -0.7082
vn 0.0000 0.7082 0.7060
vn -0.4811 0.5946 -0.6442
vn 0.2971 0.8679 0.3980
vn -0.7620 0.6476 0.0000
vn 0.6280 0.7782 0.0000
vn -0.4807 0.5945 0.6446
vn 0.2968 0.8681 -0.3979
vn 0.5654 0.5790 0.5875
vn 0.5892 0.5757 -0.5669
vn 0.4808 0.5946 0.6445
vn -0.2968 0.8681 -0.3979
vn -0.5556 0.5807 0.5951
vn -0.5983 0.5743 -0.5588
vn 1.0000 -0.0000 -0.0000
vn 0.5983 -0.0000 -0.8012
vn 0.0000 -0.0000 -1.0000
vn -0.5984 -0.0000 -0.8012
vn -1.0000 0.0000 0.0000
vn -0.5978 0.0000 0.8016
vn 0.6934 0.0000 0.7205
vn 0.7206 -0.0000 -0.6934
vn 0.5978 -0.0000 -0.8016
vn 1.0000 0.0000 0.0000
vn 0.5983 0.0000 0.8013
vn 0.0000 0.0000 1.0000
vn -0.5983 0.0000 0.8013
vn -0.5978 -0.0000 -0.8016
vn -0.7308 -0.0000 -0.6826
vn -0.6824 0.0000 0.7310
vn 0.5979 0.0000 0.8015
# 35 vertex normals

vt 0.8924 -0.0000 2.7801
vt 0.6310 0.8670 2.7801
vt 0.5862 0.8070 2.7801
vt 0.8295 -0.0000 2.7801
vt 0.0000 0.8701 2.7801
vt 0.0000 0.8098 2.7801
vt -0.6311 0.8670 2.7801
vt -0.5862 0.8070 2.7801
vt -0.8924 0.0000 2.7801
vt -0.8295 0.0000 2.7801
vt -0.6310 -0.8673 2.7801
vt -0.5862 -0.8072 2.7801
vt -0.3146 -0.8684 2.7801
vt -0.3125 -0.8082 2.7801
vt 0.6310 -0.8672 2.7801
vt 0.5862 -0.8072 2.7801
vt 0.3169 -0.8684 2.7801
vt 0.3130 -0.8082 2.7801
vt 0.8924 -0.0000 2.6930
vt 0.6310 0.8670 2.6930
vt 0.0000 0.8701 2.6930
vt -0.6311 0.8670 2.6930
vt -0.8924 0.0000 2.6930
vt -0.6310 -0.8673 2.6930
vt -0.3146 -0.8684 2.6930
vt -0.3125 -0.8082 2.6930
vt -0.5862 -0.8072 2.6930
vt -0.8295 0.0000 2.6930
vt -0.5862 0.8070 2.6930
vt 0.0000 0.8098 2.6930
vt 0.5862 0.8070 2.6930
vt 0.8295 -0.0000 2.6930
vt 0.5862 -0.8072 2.6930
vt 0.3130 -0.8082 2.6930
vt 0.3169 -0.8684 2.6930
vt 0.6310 -0.8672 2.6930
# 36 texture coords

o edge
g edge
s off
f 1/1/1 2/2/2 3/3/3 4/4/4 
f 2/2/2 5/5/5 6/6/6 3/3/3 
f 5/5/5 7/7/7 8/8/8 6/6/6 
f 7/7/7 9/9/9 10/10/10 8/8/8 
f 9/9/9 11/11/11 12/12/12 10/10/10 
f 11/11/11 13/13/13 14/14/14 12/12/12 
f 15/15/15 1/1/1 4/4/4 16/16/16 
f 17/17/17 15/15/15 16/16/16 18/18/18 
f 19/19/19 20/20/20 2/2/2 1/1/1 
f 20/20/20 21/21/21 5/5/5 2/2/2 
f 21/21/21 22/22/22 7/7/7 5/5/5 
f 22/22/22 23/23/23 9/9/9 7/7/7 
f 23/23/23 24/24/24 11/11/11 9/9/9 
f 24/24/24 25/25/25 13/13/13 11/11/11 
f 25/25/25 26/26/26 14/14/14 13/13/13 
f 26/26/26 27/27/27 12/12/12 14/14/14 
f 27/27/27 28/28/28 10/10/10 12/12/12 
f 28/28/28 29/29/29 8/8/8 10/10/10 
f 29/29/29 30/30/30 6/6/6 8/8/8 
f 30/30/30 31/31/31 3/3/3 6/6/6 
f 31/31/31 32/32/23 4/4/4 3/3/3 
f 32/32/23 33/33/32 16/16/16 4/4/4 
f 33/33/32 34/34/33 18/18/18 16/16/16 
f 34/34/33 35/35/34 17/17/17 18/18/18 
f 35/35/34 36/36/35 15/15/15 17/17/17 
f 36/36/35 19/19/19 1/1/1 15/15/15 
# 26 polygons

