# 3ds Max Wavefront OBJ Exporter v0.97b - (c)2007 guruware
# File Created: 19.02.2022 23:13:08

#
# object furnace
#

v  0.1549 0.7436 0.0598
v  0.0762 0.7436 -0.1373
v  -0.0000 0.7436 -0.0260
v  0.0942 0.7436 0.0822
v  0.0334 0.7436 0.1044
v  -0.0000 0.7436 -0.1685
v  -0.0000 0.1716 -0.1685
v  0.0762 0.1716 -0.1373
v  0.0334 0.1889 0.1044
v  -0.0000 0.7436 0.1164
v  -0.0000 0.1889 0.1160
v  0.0942 0.1098 0.0822
v  0.1549 0.1716 0.0598
v  -0.0002 -0.9585 -0.1686
v  -0.0001 0.0451 -0.1686
v  0.0762 0.0451 -0.1373
v  0.0762 -0.9585 -0.1373
v  0.0331 -0.0318 0.1686
v  0.0331 0.0448 0.1686
v  -0.0332 0.0448 0.1686
v  -0.0332 -0.0318 0.1686
v  0.1549 -0.9585 0.0598
v  0.1549 0.0451 0.0598
v  0.0942 0.0448 0.0822
v  0.0942 -0.0318 0.0822
v  0.1245 -0.9585 0.0710
v  -0.1549 0.7436 0.0598
v  -0.0762 0.7436 -0.1373
v  -0.0942 0.7436 0.0822
v  -0.0334 0.7436 0.1044
v  -0.0762 0.1716 -0.1373
v  -0.0334 0.1889 0.1044
v  -0.0942 0.1098 0.0822
v  -0.1549 0.1716 0.0598
v  -0.0762 -0.9585 -0.1373
v  -0.0762 0.0451 -0.1373
v  -0.1549 -0.9585 0.0598
v  -0.1245 -0.9585 0.0710
v  -0.0942 -0.0318 0.0822
v  -0.0942 0.0448 0.0822
v  -0.1549 0.0451 0.0598
v  0.0942 0.0448 0.0131
v  0.0942 -0.0318 0.0131
v  0.0334 0.1889 0.0135
v  0.0942 0.1098 0.0131
v  -0.0000 0.1889 0.0137
v  -0.0334 0.1889 0.0135
v  -0.0942 0.1098 0.0131
v  -0.0942 0.0448 0.0131
v  0.0334 0.0452 0.0135
v  -0.0002 0.0452 0.0137
v  0.0570 0.0450 0.0133
v  -0.0334 0.0452 0.0135
v  -0.0587 0.0450 0.0133
v  -0.0942 -0.0318 0.0131
v  -0.0581 0.0447 0.0379
v  -0.0164 0.0448 0.1440
v  0.0164 0.0448 0.1440
v  0.0580 0.0447 0.0379
v  -0.0002 0.0291 0.0136
v  0.0334 0.0291 0.0134
v  -0.0334 0.0291 0.0134
v  -0.0587 0.0289 0.0132
v  -0.0581 0.0286 0.0378
v  -0.0164 0.0287 0.1439
v  0.0164 0.0287 0.1439
v  0.0580 0.0286 0.0378
v  0.0570 0.0289 0.0133
v  -0.0001 0.0289 0.0477
# 69 vertices

vn 0.7469 0.5760 0.3322
vn 0.5522 0.6289 -0.5474
vn 0.0000 1.0000 -0.0000
vn 0.2437 0.7066 0.6643
vn 0.2407 0.7066 0.6654
vn 0.0000 0.6309 -0.7758
vn 0.0001 0.0000 -1.0000
vn 0.7102 -0.0000 -0.7040
vn 0.0609 -0.5834 0.8099
vn 0.0000 0.6381 0.7699
vn 0.0000 -0.6402 0.7682
vn -0.4057 -0.2655 0.8746
vn 0.9137 -0.0000 0.4064
vn -0.0008 0.0000 -1.0000
vn -0.0005 0.0001 -1.0000
vn 0.7101 -0.0000 -0.7041
vn 0.7100 -0.0000 -0.7042
vn 0.5632 -0.0000 0.8263
vn 0.4510 0.5989 0.6617
vn -0.4512 0.5989 0.6616
vn -0.5634 -0.0000 0.8262
vn -0.5716 0.0000 0.8205
vn -0.1672 0.0000 0.9859
vn 0.3465 -0.0000 0.9380
vn -0.7469 0.5760 0.3322
vn -0.5522 0.6289 -0.5474
vn -0.2437 0.7066 0.6643
vn -0.2407 0.7066 0.6654
vn -0.7102 -0.0000 -0.7040
vn -0.0609 -0.5834 0.8099
vn 0.4057 -0.2655 0.8746
vn -0.9137 -0.0000 0.4064
vn -0.7105 -0.0000 -0.7037
vn -0.7103 -0.0000 -0.7039
vn -0.3465 -0.0000 0.9380
vn 0.1672 0.0000 0.9859
vn 0.5716 0.0000 0.8205
vn -0.5621 0.4014 0.7232
vn -0.1860 -0.0000 0.9825
vn -0.3445 -0.7041 0.6209
vn -0.7244 -0.2472 0.6436
vn 0.0000 -0.7084 0.7058
vn 0.3445 -0.7041 0.6209
vn 0.7244 -0.2472 0.6436
vn 0.5621 0.4016 0.7231
vn 0.0059 -0.0021 1.0000
vn -0.0000 -0.0021 1.0000
vn -0.2885 0.2901 0.9125
vn -0.0059 -0.0021 1.0000
vn 0.2929 0.3079 0.9052
vn 0.1858 -0.0000 0.9826
vn 0.6524 0.7464 -0.1313
vn 0.2865 0.8599 -0.4224
vn -0.2865 0.8599 -0.4225
vn -0.6468 0.7551 -0.1069
vn -0.0000 0.7043 0.7099
vn 0.0081 0.7003 0.7139
vn -0.0082 0.7003 0.7138
vn 0.5832 0.5724 0.5764
vn 0.7238 0.6751 -0.1423
vn 0.4507 0.6013 -0.6598
vn -0.4506 0.6013 -0.6599
vn -0.7346 0.6681 -0.1183
vn -0.5610 0.5758 0.5947
vn -0.0000 1.0000 0.0050
# 65 vertex normals

vt 0.7500 1.0000 1.0000
vt 0.8750 1.0000 1.0000
vt 0.5383 1.0000 1.0000
vt 0.6250 1.0000 1.0000
vt 0.5000 1.0000 1.0000
vt -0.1250 1.0000 1.0000
vt 0.0006 1.0000 1.0000
vt 0.0129 1.0000 1.0000
vt 0.0006 0.7500 1.0000
vt -0.1250 0.7500 1.0000
vt 0.5000 0.7500 1.0000
vt 0.4345 1.0000 1.0000
vt 0.4360 0.7500 1.0000
vt 0.6250 0.7500 1.0000
vt 0.7500 0.7500 1.0000
vt 0.8750 0.7500 1.0000
vt 0.0006 0.6250 1.0000
vt 0.0006 0.6875 1.0000
vt -0.1250 0.6875 1.0000
vt -0.1250 0.6250 1.0000
vt 0.6250 0.6250 1.0000
vt 0.6250 0.6875 1.0000
vt 0.7500 0.6250 1.0000
vt 0.7500 0.6875 1.0000
vt 0.6875 0.6250 1.0000
vt 0.8750 0.6250 1.0000
vt 0.8750 0.6875 1.0000
vt 0.0215 1.0000 1.0000
vt 0.5000 0.6875 1.0000
vt 0.4360 0.6875 1.0000
vt 0.5486 0.6875 1.0000
vt 0.5522 0.6875 1.0000
vt 0.5692 0.6875 1.0000
vt 0.5261 0.6875 1.0000
# 34 texture coords

o furnace
g furnace
s off
f 1/1/1 2/2/2 3/3/3 
f 4/4/4 1/1/1 3/3/3 
f 5/5/5 4/4/4 3/3/3 
f 2/6/2 6/7/6 3/8/3 
f 7/9/7 6/7/6 2/6/2 8/10/8 
f 9/11/9 5/5/5 10/12/10 11/13/11 
f 12/14/12 4/4/4 5/5/5 9/11/9 
f 13/15/13 1/1/1 4/4/4 12/14/12 
f 8/16/8 2/2/2 1/1/1 13/15/13 
f 14/17/14 15/18/15 16/19/16 17/20/17 
f 18/21/18 19/22/19 20/22/20 21/21/21 
f 22/23/13 23/24/13 24/22/22 25/21/23 26/25/24 
f 17/26/17 16/27/16 23/24/13 22/23/13 
f 10/12/10 5/5/5 3/3/3 
f 27/1/25 3/3/3 28/2/26 
f 29/4/27 3/3/3 27/1/25 
f 30/5/28 3/3/3 29/4/27 
f 28/6/26 3/28/3 6/7/6 
f 7/9/7 31/10/29 28/6/26 6/7/6 
f 32/11/30 11/13/11 10/12/10 30/5/28 
f 33/14/31 32/11/30 30/5/28 29/4/27 
f 34/15/32 33/14/31 29/4/27 27/1/25 
f 31/16/29 34/15/32 27/1/25 28/2/26 
f 14/17/14 35/20/33 36/19/34 15/18/15 
f 37/23/32 38/25/35 39/21/36 40/22/37 41/24/32 
f 35/26/33 37/23/32 41/24/32 36/27/34 
f 10/12/10 3/3/3 30/5/28 
f 25/21/23 24/22/22 42/22/38 43/21/39 
f 12/14/12 9/11/9 44/11/40 45/14/41 
f 9/11/9 11/13/11 46/13/42 44/11/40 
f 11/13/11 32/11/30 47/11/43 46/13/42 
f 32/11/30 33/14/31 48/14/44 47/11/43 
f 33/14/31 40/22/37 49/22/45 48/14/44 
f 15/18/15 7/9/7 8/10/8 16/19/16 
f 50/29/46 44/11/40 46/13/42 51/30/47 
f 52/31/48 42/22/38 45/14/41 
f 23/24/13 13/15/13 12/14/12 24/22/22 
f 16/27/16 8/16/8 13/15/13 23/24/13 
f 36/19/34 31/10/29 7/9/7 15/18/15 
f 51/30/47 46/13/42 47/11/43 53/29/49 
f 47/11/43 48/14/44 54/32/50 53/29/49 
f 40/22/37 33/14/31 34/15/32 41/24/32 
f 41/24/32 34/15/32 31/16/29 36/27/34 
f 24/22/22 12/14/12 45/14/41 42/22/38 
f 40/22/37 39/21/36 55/21/51 49/22/45 
f 43/21/39 42/22/38 19/22/19 18/21/18 
f 49/22/45 55/21/51 21/21/21 20/22/20 
f 54/32/50 49/22/45 56/22/52 
f 49/22/45 20/22/20 57/22/53 56/22/52 
f 20/22/20 19/22/19 58/22/54 57/22/53 
f 19/22/19 42/22/38 59/22/55 58/22/54 
f 59/22/55 42/22/38 52/31/48 
f 50/29/46 51/30/47 60/30/56 61/29/57 
f 51/30/47 53/29/49 62/29/58 60/30/56 
f 53/29/49 54/32/50 63/32/59 62/29/58 
f 54/32/50 56/22/52 64/22/60 63/32/59 
f 56/22/52 57/22/53 65/22/61 64/22/60 
f 57/22/53 58/22/54 66/22/62 65/22/61 
f 58/22/54 59/22/55 67/22/63 66/22/62 
f 59/22/55 52/31/48 68/31/64 67/22/63 
f 52/31/48 50/29/46 61/29/57 68/31/64 
f 61/29/57 60/30/56 69/33/65 
f 60/30/56 62/29/58 69/33/65 
f 62/29/58 63/32/59 69/34/65 
f 63/32/59 64/22/60 69/34/65 
f 64/22/60 65/22/61 69/33/65 
f 65/22/61 66/22/62 69/33/65 
f 66/22/62 67/22/63 69/33/65 
f 67/22/63 68/31/64 69/33/65 
f 68/31/64 61/29/57 69/33/65 
f 45/14/41 44/11/40 50/29/46 52/31/48 
f 48/14/44 49/22/45 54/32/50 
# 49 polygons - 23 triangles

