# 3ds Max Wavefront OBJ Exporter v0.97b - (c)2007 guruware
# File Created: 19.02.2022 23:15:25

#
# object ingot
#

v  -0.0065 -0.0030 0.0125
v  -0.0065 -0.0030 -0.0125
v  0.0065 -0.0030 -0.0125
v  0.0065 -0.0030 0.0125
v  -0.0045 0.0030 0.0095
v  0.0045 0.0030 0.0095
v  0.0045 0.0030 -0.0095
v  -0.0045 0.0030 -0.0095
v  -0.0064 -0.0028 0.0126
v  0.0064 -0.0028 0.0126
v  0.0045 0.0028 0.0098
v  -0.0045 0.0028 0.0098
v  0.0066 -0.0028 0.0124
v  0.0066 -0.0028 -0.0124
v  0.0047 0.0028 -0.0096
v  0.0047 0.0028 0.0096
v  0.0064 -0.0028 -0.0126
v  -0.0064 -0.0028 -0.0126
v  -0.0045 0.0028 -0.0098
v  0.0045 0.0028 -0.0098
v  -0.0066 -0.0028 -0.0124
v  -0.0066 -0.0028 0.0124
v  -0.0047 0.0028 0.0096
v  -0.0047 0.0028 -0.0096
# 24 vertices

vn -0.4653 -0.7432 0.4808
vn -0.4653 -0.7432 -0.4808
vn 0.4653 -0.7432 -0.4808
vn 0.4653 -0.7432 0.4808
vn -0.2638 0.9368 0.2299
vn 0.2638 0.9368 0.2299
vn 0.2638 0.9368 -0.2299
vn -0.2638 0.9368 -0.2299
vn -0.3563 0.0384 0.9336
vn 0.3563 0.0384 0.9336
vn 0.2742 0.6713 0.6886
vn -0.2742 0.6713 0.6886
vn 0.9433 -0.0118 0.3318
vn 0.9433 -0.0118 -0.3318
vn 0.7514 0.6130 -0.2441
vn 0.7514 0.6130 0.2441
vn 0.3563 0.0384 -0.9336
vn -0.3563 0.0384 -0.9336
vn -0.2742 0.6713 -0.6886
vn 0.2742 0.6713 -0.6886
vn -0.9433 -0.0118 -0.3318
vn -0.9433 -0.0118 0.3318
vn -0.7514 0.6130 0.2441
vn -0.7514 0.6130 -0.2441
# 24 vertex normals

vt 0.9995 0.0005 0.0000
vt 0.9995 0.9995 0.0000
vt 0.0005 0.9995 0.0000
vt 0.0005 0.0005 0.0000
vt -0.0168 0.0191 0.0000
vt -0.0135 -0.0071 0.0000
vt -0.0376 0.0139 0.0000
vt -0.0321 -0.0102 0.0000
vt -0.0162 0.0159 0.0000
vt -0.0144 -0.0067 0.0000
vt -0.0321 1.0102 0.0000
vt -0.0376 0.9861 0.0000
vt -0.0258 1.0140 0.0000
vt -0.0216 0.9834 0.0000
vt -0.0253 1.0142 0.0000
vt -0.0225 0.9822 0.0000
vt 0.9949 -0.0123 0.0000
vt 0.0051 -0.0123 0.0000
vt 0.9654 0.0761 0.0000
vt 0.0346 0.0761 0.0000
vt 0.0672 0.7132 0.0000
vt 0.9328 0.7132 0.0000
vt 0.0069 1.0223 0.0000
vt 0.9931 1.0223 0.0000
vt 1.0726 0.9634 0.0000
vt 1.0679 -0.0309 0.0000
vt -0.0679 -0.0309 0.0000
vt -0.0726 0.9634 0.0000
vt -0.0837 -0.0366 0.0000
vt -0.0779 0.9675 0.0000
# 30 texture coords

o ingot
g ingot
s off
f 1/1/1 2/2/2 3/3/3 4/4/4 
f 5/4/5 6/1/6 7/2/7 8/3/8 
f 9/4/9 10/1/10 11/2/11 12/3/12 
f 13/4/13 14/1/14 15/2/15 16/3/16 
f 17/4/17 18/1/18 19/2/19 20/3/20 
f 21/4/21 22/1/22 23/2/23 24/3/24 
f 9/4/9 22/5/22 1/6/1 
f 4/4/4 13/7/13 10/8/10 
f 21/4/21 18/9/18 2/10/2 
f 3/3/3 17/11/17 14/12/14 
f 12/3/12 5/13/5 23/14/23 
f 16/3/16 6/15/6 11/16/11 
f 24/3/24 8/15/8 19/16/19 
f 20/3/20 7/13/7 15/14/15 
f 1/17/1 22/1/22 21/4/21 2/18/2 
f 4/19/4 10/1/10 9/4/9 1/20/1 
f 3/17/3 14/1/14 13/4/13 4/18/4 
f 2/19/2 18/1/18 17/4/17 3/20/3 
f 5/21/5 12/3/12 11/2/11 6/22/6 
f 8/23/8 24/3/24 23/2/23 5/24/5 
f 6/23/6 16/3/16 15/2/15 7/24/7 
f 7/21/7 20/3/20 19/2/19 8/22/8 
f 12/25/12 23/2/23 22/1/22 9/26/9 
f 10/27/10 13/4/13 16/3/16 11/28/11 
f 14/29/14 17/4/17 20/3/20 15/30/15 
f 18/27/18 21/4/21 24/3/24 19/28/19 
# 18 polygons - 8 triangles

