# 3ds Max Wavefront OBJ Exporter v0.97b - (c)2007 guruware
# File Created: 19.02.2022 23:11:47

#
# object platform
#

v  0.2171 1.3022 -0.2982
v  0.3070 1.3022 0.0001
v  0.3070 1.0961 0.0001
v  0.2171 1.0961 -0.2982
v  0.2171 1.3022 0.2984
v  0.2171 1.0961 0.2984
v  -0.0000 1.3022 0.2992
v  -0.0000 1.0961 0.2992
v  -0.2171 1.3022 0.2984
v  -0.2171 1.0961 0.2984
v  -0.3070 1.3022 0.0001
v  -0.3070 1.0961 0.0001
v  -0.2171 1.3022 -0.2982
v  -0.2171 1.0961 -0.2982
v  -0.0000 1.3022 -0.2992
v  -0.0000 1.0961 -0.2992
v  0.2379 1.0961 0.0001
v  0.1682 1.0961 -0.2311
v  0.1682 1.0961 0.2313
v  -0.0000 1.0961 0.2319
v  -0.1682 1.0961 0.2313
v  -0.2379 1.0961 0.0001
v  -0.1682 1.0961 -0.2311
v  -0.0000 1.0961 -0.2319
v  0.2379 0.0210 0.0001
v  0.1682 0.0210 -0.2311
v  0.1682 0.0210 0.2313
v  -0.0000 0.0210 0.2319
v  -0.1682 0.0210 0.2313
v  -0.2379 0.0210 0.0001
v  -0.1682 0.0210 -0.2311
v  -0.0000 0.0210 -0.2319
v  -0.0000 1.3022 0.0001
# 33 vertices

vn 0.9574 0.0000 -0.2887
vn 0.9574 -0.0000 0.2886
vn 0.0038 -0.0000 1.0000
vn -0.0036 -0.0000 1.0000
vn -0.9575 -0.0000 0.2886
vn -0.9575 0.0000 -0.2886
vn -0.0049 0.0000 -1.0000
vn 0.0049 0.0000 -1.0000
vn 0.0000 -1.0000 -0.0000
vn -0.0000 -1.0000 -0.0000
vn 0.9575 -0.0000 0.2886
vn 0.0037 -0.0000 1.0000
vn -0.0037 -0.0000 1.0000
vn -0.9574 0.0000 -0.2887
vn -0.0047 0.0000 -1.0000
vn 0.0047 0.0000 -1.0000
vn 0.0000 1.0000 0.0000
vn -0.0000 1.0000 0.0000
vn 0.0000 1.0000 -0.0000
# 19 vertex normals

vt 0.6310 0.8670 2.6930
vt 0.8924 0.0000 2.6930
vt 0.8924 0.0000 2.0938
vt 0.6310 0.8670 2.0938
vt 0.6310 -0.8672 2.6930
vt 0.6310 -0.8672 2.0938
vt 0.0000 -0.8696 2.6930
vt 0.0000 -0.8696 2.0938
vt -0.6310 -0.8673 2.6930
vt -0.6310 -0.8673 2.0938
vt -0.8924 0.0000 2.6930
vt -0.8924 0.0000 2.0938
vt -0.6311 0.8670 2.6930
vt -0.6311 0.8670 2.0938
vt 0.0000 0.8701 2.6930
vt 0.0000 0.8701 2.0938
vt 0.6917 0.0000 2.0938
vt 0.4891 0.6720 2.0938
vt 0.4891 -0.6722 2.0938
vt 0.0000 -0.6740 2.0938
vt -0.4891 -0.6722 2.0938
vt -0.6917 0.0000 2.0938
vt -0.4891 0.6720 2.0938
vt 0.0000 0.6743 2.0938
vt 0.6917 0.0000 -1.0314
vt 0.4891 0.6720 -1.0314
vt 0.4891 -0.6722 -1.0314
vt 0.0000 -0.6740 -1.0314
vt -0.4891 -0.6722 -1.0314
vt -0.6917 0.0000 -1.0314
vt -0.4891 0.6720 -1.0314
vt 0.0000 0.6743 -1.0314
vt -0.0000 0.0000 2.6930
# 33 texture coords

o platform
g platform
s off
f 1/1/1 2/2/1 3/3/1 4/4/1 
f 2/2/2 5/5/2 6/6/2 3/3/2 
f 5/5/3 7/7/3 8/8/3 6/6/3 
f 7/7/4 9/9/4 10/10/4 8/8/4 
f 9/9/5 11/11/5 12/12/5 10/10/5 
f 11/11/6 13/13/6 14/14/6 12/12/6 
f 13/13/7 15/15/7 16/16/7 14/14/7 
f 15/15/8 1/1/8 4/4/8 16/16/8 
f 4/4/9 3/3/9 17/17/9 18/18/9 
f 3/3/10 6/6/10 19/19/10 17/17/10 
f 6/6/10 8/8/10 20/20/10 19/19/10 
f 8/8/9 10/10/9 21/21/9 20/20/9 
f 10/10/9 12/12/9 22/22/9 21/21/9 
f 12/12/10 14/14/10 23/23/10 22/22/10 
f 14/14/10 16/16/10 24/24/10 23/23/10 
f 16/16/9 4/4/9 18/18/9 24/24/9 
f 18/18/1 17/17/1 25/25/1 26/26/1 
f 17/17/11 19/19/11 27/27/11 25/25/11 
f 19/19/12 20/20/12 28/28/12 27/27/12 
f 20/20/13 21/21/13 29/29/13 28/28/13 
f 21/21/5 22/22/5 30/30/5 29/29/5 
f 22/22/14 23/23/14 31/31/14 30/30/14 
f 23/23/15 24/24/15 32/32/15 31/31/15 
f 24/24/16 18/18/16 26/26/16 32/32/16 
f 2/2/17 1/1/17 33/33/17 
f 5/5/17 2/2/17 33/33/17 
f 7/7/17 5/5/17 33/33/17 
f 9/9/18 7/7/18 33/33/18 
f 11/11/18 9/9/18 33/33/18 
f 13/13/18 11/11/18 33/33/18 
f 15/15/19 13/13/19 33/33/19 
f 1/1/19 15/15/19 33/33/19 
# 24 polygons - 8 triangles

