# 3ds Max Wavefront OBJ Exporter v0.97b - (c)2007 guruware
# File Created: 19.02.2022 23:15:43

#
# object Grinding_Wheel
#

v  -0.0104 0.0395 0.0193
v  -0.0104 0.0605 0.0280
v  -0.0104 0.0815 0.0193
v  -0.0104 0.0902 -0.0017
v  -0.0104 0.0815 -0.0228
v  -0.0104 0.0605 -0.0315
v  -0.0104 0.0395 -0.0228
v  -0.0104 0.0307 -0.0017
v  0.0054 0.0395 -0.0228
v  0.0054 0.0307 -0.0017
v  0.0054 0.0605 -0.0315
v  0.0054 0.0815 -0.0228
v  0.0054 0.0902 -0.0017
v  0.0054 0.0815 0.0193
v  0.0054 0.0605 0.0280
v  0.0054 0.0395 0.0193
v  0.0041 0.0529 0.0073
v  0.0041 0.0620 0.0111
v  0.0041 0.0711 0.0073
v  0.0041 0.0748 -0.0017
v  0.0041 0.0711 -0.0108
v  0.0041 0.0620 -0.0146
v  0.0041 0.0529 -0.0108
v  0.0041 0.0491 -0.0017
v  0.0110 0.0529 -0.0108
v  0.0110 0.0491 -0.0017
v  0.0110 0.0620 -0.0146
v  0.0110 0.0711 -0.0108
v  0.0110 0.0748 -0.0017
v  0.0110 0.0711 0.0073
v  0.0110 0.0620 0.0111
v  0.0110 0.0529 0.0073
v  -0.0015 0.0599 0.0003
v  -0.0015 0.0620 0.0012
v  -0.0015 0.0641 0.0003
v  -0.0015 0.0649 -0.0018
v  -0.0015 0.0641 -0.0039
v  -0.0015 0.0620 -0.0048
v  -0.0015 0.0599 -0.0039
v  -0.0015 0.0590 -0.0018
v  0.0264 0.0599 -0.0039
v  0.0264 0.0590 -0.0018
v  0.0264 0.0620 -0.0048
v  0.0264 0.0641 -0.0039
v  0.0264 0.0649 -0.0018
v  0.0264 0.0641 0.0003
v  0.0264 0.0620 0.0012
v  0.0264 0.0599 0.0003
v  0.0254 0.0029 -0.0397
v  0.0254 0.0029 -0.0269
v  0.0115 0.0029 -0.0269
v  0.0115 0.0029 -0.0397
v  0.0254 0.0616 -0.0135
v  0.0115 0.0616 -0.0135
v  0.0115 0.0616 -0.0007
v  0.0254 0.0616 -0.0007
v  -0.0125 0.0029 -0.0397
v  -0.0125 0.0029 -0.0269
v  -0.0264 0.0029 -0.0269
v  -0.0264 0.0029 -0.0397
v  -0.0125 0.0616 -0.0135
v  -0.0264 0.0616 -0.0135
v  -0.0264 0.0616 -0.0007
v  -0.0125 0.0616 -0.0007
v  0.0115 0.0029 0.0397
v  0.0115 0.0029 0.0269
v  0.0254 0.0029 0.0269
v  0.0254 0.0029 0.0397
v  0.0115 0.0616 0.0135
v  0.0254 0.0616 0.0135
v  0.0254 0.0616 0.0007
v  0.0115 0.0616 0.0007
v  -0.0240 0.0202 0.0320
v  -0.0240 0.0307 0.0271
v  0.0237 0.0307 0.0271
v  0.0237 0.0202 0.0320
v  -0.0240 0.0212 0.0343
v  0.0237 0.0212 0.0343
v  0.0237 0.0318 0.0294
v  -0.0240 0.0318 0.0294
v  -0.0264 0.0029 0.0397
v  -0.0264 0.0029 0.0269
v  -0.0125 0.0029 0.0269
v  -0.0125 0.0029 0.0397
v  -0.0264 0.0616 0.0135
v  -0.0125 0.0616 0.0135
v  -0.0125 0.0616 0.0007
v  -0.0264 0.0616 0.0007
v  -0.0252 0.0206 -0.0341
v  -0.0252 0.0303 -0.0296
v  0.0231 0.0303 -0.0296
v  0.0231 0.0206 -0.0341
v  -0.0252 0.0195 -0.0319
v  0.0231 0.0195 -0.0319
v  0.0231 0.0293 -0.0273
v  -0.0252 0.0293 -0.0273
v  -0.0225 0.0599 0.0003
v  -0.0225 0.0620 0.0012
v  -0.0225 0.0641 0.0003
v  -0.0225 0.0649 -0.0017
v  -0.0225 0.0641 -0.0038
v  -0.0225 0.0620 -0.0047
v  -0.0225 0.0599 -0.0038
v  -0.0225 0.0590 -0.0017
v  -0.0010 0.0599 -0.0038
v  -0.0010 0.0590 -0.0017
v  -0.0010 0.0620 -0.0047
v  -0.0010 0.0641 -0.0038
v  -0.0010 0.0649 -0.0017
v  -0.0010 0.0641 0.0003
v  -0.0010 0.0620 0.0012
v  -0.0010 0.0599 0.0003
# 112 vertices

vn -0.6303 -0.5490 0.5490
vn -0.6303 0.0000 0.7764
vn -0.6303 0.5489 0.5490
vn -0.6303 0.7763 -0.0000
vn -0.6303 0.5490 -0.5490
vn -0.6303 0.0000 -0.7764
vn -0.6303 -0.5490 -0.5490
vn -0.6303 -0.7764 -0.0000
vn 0.6303 -0.5490 -0.5490
vn 0.6303 -0.7764 -0.0000
vn 0.6303 -0.0000 -0.7764
vn 0.6303 0.5490 -0.5490
vn 0.6303 0.7763 -0.0000
vn 0.6303 0.5489 0.5490
vn 0.6303 -0.0000 0.7764
vn 0.6303 -0.5490 0.5490
vn -0.6303 -0.0000 0.7764
vn -0.6302 0.5490 0.5490
vn 0.6303 0.0000 -0.7764
vn 0.6302 0.7764 0.0000
vn 0.6303 0.0000 0.7764
vn -0.6303 0.5490 0.5490
vn -0.6303 0.7764 -0.0000
vn 0.6303 -0.7764 0.0000
vn 0.6303 0.7764 0.0000
vn 0.6303 0.5490 0.5490
vn 0.5584 -0.4515 -0.6960
vn 0.6027 -0.6695 0.4343
vn -0.6027 -0.6694 0.4343
vn -0.5584 -0.4515 -0.6960
vn 0.6027 0.6695 -0.4343
vn -0.6027 0.6695 -0.4343
vn -0.5584 0.4515 0.6960
vn 0.5584 0.4515 0.6960
vn -0.5584 -0.4515 0.6960
vn -0.6027 -0.6695 -0.4343
vn 0.6027 -0.6694 -0.4343
vn 0.5584 -0.4515 0.6960
vn -0.6027 0.6695 0.4343
vn 0.6027 0.6695 0.4343
vn 0.5584 0.4515 -0.6960
vn -0.5584 0.4515 -0.6960
vn -0.5773 -0.7673 -0.2793
vn -0.5774 0.2793 -0.7673
vn 0.5774 0.2793 -0.7673
vn 0.5774 -0.7673 -0.2793
vn -0.5774 -0.2793 0.7673
vn 0.5774 -0.2793 0.7673
vn 0.5773 0.7673 0.2793
vn -0.5774 0.7673 0.2793
vn -0.5774 -0.2793 -0.7672
vn -0.5773 0.7673 -0.2794
vn 0.5774 0.7673 -0.2792
vn 0.5773 -0.2792 -0.7673
vn -0.5774 -0.7673 0.2792
vn 0.5774 -0.7673 0.2793
vn 0.5773 0.2793 0.7673
vn -0.5773 0.2792 0.7673
# 58 vertex normals

vt 0.6250 0.0000 1.0000
vt 0.5000 0.0000 1.0000
vt 0.3750 0.0000 1.0000
vt 0.2500 0.0000 1.0000
vt 0.1250 0.0000 1.0000
vt 0.0000 0.0000 1.0000
vt -0.1250 0.0000 1.0000
vt 0.1161 0.0000 0.4142
vt 0.7500 0.0000 1.0000
vt 0.8750 0.0000 1.0000
vt 0.8750 1.0000 1.0000
vt 0.7500 1.0000 1.0000
vt 0.0000 1.0000 1.0000
vt -0.1250 1.0000 1.0000
vt 0.1250 1.0000 1.0000
vt 0.2500 1.0000 1.0000
vt 0.3750 1.0000 1.0000
vt 0.5000 1.0000 1.0000
vt 0.6250 1.0000 1.0000
vt 0.7803 1.0000 0.4142
vt 0.5214 1.0000 -0.4142
vt 0.2500 1.0000 -1.0000
vt 0.1250 1.0000 -1.0000
vt 0.2197 1.0000 -0.4142
vt 1.0000 0.0000 0.0000
vt 1.0000 1.0000 0.0000
vt 0.0000 1.0000 0.0000
vt 0.0000 0.0000 0.0000
# 28 texture coords

o Grinding_Wheel
g Grinding_Wheel
s off
f 1/1/1 2/2/2 3/3/3 4/4/4 5/5/5 6/6/6 7/7/7 8/8/8 
f 8/9/8 7/10/7 9/11/9 10/12/10 
f 7/7/7 6/6/6 11/13/11 9/14/9 
f 6/6/6 5/5/5 12/15/12 11/13/11 
f 5/5/5 4/4/4 13/16/13 12/15/12 
f 4/4/4 3/3/3 14/17/14 13/16/13 
f 3/3/3 2/2/2 15/18/15 14/17/14 
f 2/2/2 1/1/1 16/19/16 15/18/15 
f 1/1/1 8/9/8 10/12/10 16/19/16 
f 16/19/16 10/12/10 9/11/9 11/20/11 12/21/12 13/22/13 14/23/14 15/24/15 
f 17/1/1 18/2/17 19/3/18 20/4/4 21/5/5 22/6/6 23/7/7 24/8/8 
f 24/9/8 23/10/7 25/11/9 26/12/10 
f 23/7/7 22/6/6 27/13/19 25/14/9 
f 22/6/6 21/5/5 28/15/12 27/13/19 
f 21/5/5 20/4/4 29/16/20 28/15/12 
f 20/4/4 19/3/18 30/17/14 29/16/20 
f 19/3/18 18/2/17 31/18/21 30/17/14 
f 18/2/17 17/1/1 32/19/16 31/18/21 
f 17/1/1 24/9/8 26/12/10 32/19/16 
f 32/19/16 26/12/10 25/11/9 27/20/19 28/21/12 29/22/20 30/23/14 31/24/21 
f 33/1/1 34/2/2 35/3/22 36/4/23 37/5/5 38/6/6 39/7/7 40/8/8 
f 40/9/8 39/10/7 41/11/9 42/12/24 
f 39/7/7 38/6/6 43/13/19 41/14/9 
f 38/6/6 37/5/5 44/15/12 43/13/19 
f 37/5/5 36/4/23 45/16/25 44/15/12 
f 36/4/23 35/3/22 46/17/26 45/16/25 
f 35/3/22 34/2/2 47/18/15 46/17/26 
f 34/2/2 33/1/1 48/19/16 47/18/15 
f 33/1/1 40/9/8 42/12/24 48/19/16 
f 48/19/16 42/12/24 41/11/9 43/20/19 44/21/12 45/22/25 46/23/26 47/24/15 
f 49/25/27 50/26/28 51/27/29 52/28/30 
f 53/28/31 54/25/32 55/26/33 56/27/34 
f 49/28/27 52/25/30 54/26/32 53/27/31 
f 52/28/30 51/25/29 55/26/33 54/27/32 
f 51/28/29 50/25/28 56/26/34 55/27/33 
f 50/28/28 49/25/27 53/26/31 56/27/34 
f 57/25/27 58/26/28 59/27/29 60/28/30 
f 61/28/31 62/25/32 63/26/33 64/27/34 
f 57/28/27 60/25/30 62/26/32 61/27/31 
f 60/28/30 59/25/29 63/26/33 62/27/32 
f 59/28/29 58/25/28 64/26/34 63/27/33 
f 58/28/28 57/25/27 61/26/31 64/27/34 
f 65/25/35 66/26/36 67/27/37 68/28/38 
f 69/28/39 70/25/40 71/26/41 72/27/42 
f 65/28/35 68/25/38 70/26/40 69/27/39 
f 68/28/38 67/25/37 71/26/41 70/27/40 
f 67/28/37 66/25/36 72/26/42 71/27/41 
f 66/28/36 65/25/35 69/26/39 72/27/42 
f 73/25/43 74/26/44 75/27/45 76/28/46 
f 77/28/47 78/25/48 79/26/49 80/27/50 
f 73/28/43 76/25/46 78/26/48 77/27/47 
f 76/28/46 75/25/45 79/26/49 78/27/48 
f 75/28/45 74/25/44 80/26/50 79/27/49 
f 74/28/44 73/25/43 77/26/47 80/27/50 
f 81/25/35 82/26/36 83/27/37 84/28/38 
f 85/28/39 86/25/40 87/26/41 88/27/42 
f 81/28/35 84/25/38 86/26/40 85/27/39 
f 84/28/38 83/25/37 87/26/41 86/27/40 
f 83/28/37 82/25/36 88/26/42 87/27/41 
f 82/28/36 81/25/35 85/26/39 88/27/42 
f 89/25/51 90/26/52 91/27/53 92/28/54 
f 93/28/55 94/25/56 95/26/57 96/27/58 
f 89/28/51 92/25/54 94/26/56 93/27/55 
f 92/28/54 91/25/53 95/26/57 94/27/56 
f 91/28/53 90/25/52 96/26/58 95/27/57 
f 90/28/52 89/25/51 93/26/55 96/27/58 
f 97/1/1 98/2/2 99/3/22 100/4/23 101/5/5 102/6/6 103/7/7 104/8/8 
f 104/9/8 103/10/7 105/11/9 106/12/24 
f 103/7/7 102/6/6 107/13/11 105/14/9 
f 102/6/6 101/5/5 108/15/12 107/13/11 
f 101/5/5 100/4/23 109/16/25 108/15/12 
f 100/4/23 99/3/22 110/17/26 109/16/25 
f 99/3/22 98/2/2 111/18/15 110/17/26 
f 98/2/2 97/1/1 112/19/16 111/18/15 
f 97/1/1 104/9/8 106/12/24 112/19/16 
f 112/19/16 106/12/24 105/11/9 107/20/11 108/21/12 109/22/25 110/23/26 111/24/15 
# 76 polygons

