# 3ds Max Wavefront OBJ Exporter v0.97b - (c)2007 guruware
# File Created: 20.02.2022 20:00:32

#
# object Mur001
#

v  8.0306 84.1975 -25.9919
v  18.1612 84.1975 -15.3914
v  21.4421 84.1975 -16.6642
v  9.4503 84.1975 -29.2119
v  17.8291 84.1975 16.3016
v  21.0490 84.1975 17.7213
v  7.2286 84.1975 26.4331
v  8.5013 84.1975 29.7131
v  -7.4315 84.1975 26.1009
v  -8.8512 84.1975 29.3200
v  -17.5622 84.1975 15.4995
v  -20.8430 84.1975 16.7723
v  -17.2300 84.1975 -16.1935
v  -20.4499 84.1975 -17.6132
v  -6.6295 84.1975 -26.3241
v  -7.9023 84.1975 -29.6050
v  13.9790 79.5095 -15.4857
v  7.9355 79.5095 -21.8096
v  7.9355 -83.8900 -21.8096
v  13.9790 -83.8900 -15.4857
v  5.0060 79.5095 -23.1016
v  -3.7392 79.5095 -23.3003
v  -3.7392 -83.8900 -23.3003
v  5.0060 -83.8900 -23.1016
v  -6.7246 79.5095 -22.1418
v  -13.0485 79.5095 -16.0983
v  -13.0485 -83.8900 -16.0983
v  -6.7246 -83.8900 -22.1418
v  -17.5622 -88.5789 15.4995
v  -17.2300 -88.5789 -16.1935
v  -7.4315 -88.5789 26.1009
v  7.2286 -88.5789 26.4331
v  17.8291 -88.5789 16.3016
v  18.1612 -88.5789 -15.3914
v  -15.0917 79.5095 -18.2366
v  -8.7678 79.5095 -24.2809
v  -15.0917 -83.8900 -18.2366
v  -6.6295 -88.5789 -26.3241
v  -8.7678 -83.8900 -24.2809
v  -3.6724 79.5095 -26.2573
v  5.0727 79.5095 -26.0595
v  -3.6724 -83.8900 -26.2573
v  8.0306 -88.5789 -25.9919
v  5.0727 -83.8900 -26.0595
v  10.0738 79.5095 -23.8536
v  16.1181 79.5095 -17.5297
v  10.0738 -83.8900 -23.8536
v  16.1181 -83.8900 -17.5297
# 48 vertices

vn 0.0000 1.0000 -0.0000
vn -0.7230 0.0000 0.6909
vn -0.0227 0.0000 0.9997
vn 0.6909 0.0000 0.7230
vn 0.9999 0.0000 0.0105
vn 0.7230 0.0000 -0.6909
vn 0.0227 0.0000 -0.9997
vn -0.6909 0.0000 -0.7229
vn -0.9999 0.0000 -0.0105
vn 0.6909 0.0000 0.7229
vn 0.6908 0.0000 0.7230
vn 0.6909 -0.0000 0.7229
vn -0.0226 -0.0001 0.9997
vn -0.0226 0.0000 0.9997
vn -0.0226 0.0001 0.9997
vn -0.0228 0.0000 0.9997
vn -0.7229 0.0000 0.6909
vn -0.7230 0.0000 0.6908
vn -0.7229 -0.0000 0.6909
vn -0.6910 0.0000 -0.7229
vn 0.0000 -1.0000 -0.0000
vn -0.9997 0.0000 -0.0226
vn 0.9997 0.0000 0.0226
vn 0.7231 0.0000 -0.6907
# 24 vertex normals

o Mur001
g Mur001
s off
f 1//1 2//1 3//1 4//1 
f 2//1 5//1 6//1 3//1 
f 5//1 7//1 8//1 6//1 
f 7//1 9//1 10//1 8//1 
f 9//1 11//1 12//1 10//1 
f 11//1 13//1 14//1 12//1 
f 13//1 15//1 16//1 14//1 
f 15//1 1//1 4//1 16//1 
f 17//2 18//2 19//2 20//2 
f 21//3 22//3 23//3 24//3 
f 25//4 26//4 27//4 28//4 
f 13//5 11//5 29//5 30//5 
f 11//6 9//6 31//6 29//6 
f 9//7 7//7 32//7 31//7 
f 7//8 5//8 33//8 32//8 
f 5//9 2//9 34//9 33//9 
f 15//10 13//10 35//10 36//10 
f 13//11 30//11 37//11 35//11 
f 30//12 38//12 39//12 37//12 
f 38//11 15//11 36//11 39//11 
f 1//13 15//13 40//13 41//13 
f 15//14 38//14 42//14 40//14 
f 38//15 43//15 44//15 42//15 
f 43//16 1//16 41//16 44//16 
f 2//17 1//17 45//17 46//17 
f 1//18 43//18 47//18 45//18 
f 43//19 34//19 48//19 47//19 
f 34//18 2//18 46//18 48//18 
f 46//1 45//1 18//1 17//1 
f 45//20 47//20 19//20 18//20 
f 47//21 48//21 20//21 19//21 
f 48//11 46//11 17//11 20//11 
f 41//1 40//1 22//1 21//1 
f 40//22 42//22 23//22 22//22 
f 42//21 44//21 24//21 23//21 
f 44//23 41//23 21//23 24//23 
f 36//1 35//1 26//1 25//1 
f 35//18 37//18 27//18 26//18 
f 37//21 39//21 28//21 27//21 
f 39//24 36//24 25//24 28//24 
# 40 polygons

