# 3ds Max Wavefront OBJ Exporter v0.97b - (c)2007 guruware
# File Created: 20.02.2022 15:46:08

#
# object wood
#

v  0.1102 -0.5156 -0.0814
v  0.0326 -0.5722 -0.1374
v  0.0326 -0.3433 -0.1374
v  0.1165 -0.3433 -0.0768
v  -0.0741 -0.5188 -0.1202
v  -0.0741 -0.3433 -0.1202
v  -0.1374 -0.5722 -0.0326
v  -0.1374 -0.3433 -0.0326
v  -0.1202 -0.5253 0.0741
v  -0.1202 -0.3433 0.0741
v  -0.0326 -0.5722 0.1374
v  -0.0326 -0.3433 0.1374
v  0.0618 -0.5722 0.1222
v  0.0696 -0.3433 0.1210
v  0.1374 -0.2958 0.0326
v  0.1202 -0.1144 -0.0741
v  0.1374 -0.1144 0.0326
v  0.0326 -0.1144 -0.1374
v  -0.0741 -0.1144 -0.1202
v  -0.1374 -0.1144 -0.0326
v  -0.1202 -0.1144 0.0741
v  -0.0326 -0.1144 0.1374
v  0.0741 -0.1144 0.1202
v  0.1202 0.1144 -0.0741
v  0.1374 0.1144 0.0326
v  0.0326 0.1144 -0.1374
v  -0.0741 0.1144 -0.1202
v  -0.1374 0.1144 -0.0326
v  -0.1202 0.1144 0.0741
v  -0.0326 0.1144 0.1374
v  0.0741 0.1144 0.1202
v  0.1202 0.3433 -0.0741
v  0.1374 0.3433 0.0326
v  0.0326 0.3433 -0.1374
v  -0.0696 0.3433 -0.1210
v  -0.1374 0.3433 -0.0326
v  -0.1202 0.3433 0.0741
v  -0.0281 0.3433 0.1367
v  0.0741 0.3433 0.1202
v  0.1202 0.5722 -0.0741
v  0.1374 0.5000 0.0326
v  0.0326 0.5722 -0.1374
v  -0.0618 0.5722 -0.1222
v  0.0741 0.5000 0.1202
v  -0.0204 0.5000 0.1355
v  0.0926 -0.5156 -0.0571
v  0.0251 -0.5722 -0.1058
v  -0.0571 -0.5188 -0.0926
v  -0.1058 -0.5722 -0.0251
v  -0.0926 -0.5253 0.0571
v  -0.0251 -0.5722 0.1058
v  0.0571 -0.5722 0.0926
v  0.0571 -0.3433 0.0926
v  0.1058 -0.2958 0.0251
v  0.0926 -0.3433 -0.0571
v  -0.1058 0.3433 -0.0251
v  -0.0571 0.3433 -0.0926
v  -0.0571 0.5722 -0.0926
v  0.0251 0.5722 -0.1058
v  0.0926 0.5722 -0.0571
v  0.1058 0.5000 0.0251
v  0.0571 0.5000 0.0926
v  -0.0251 0.5000 0.1058
v  -0.0251 0.3433 0.1058
v  -0.0926 0.3433 0.0571
# 65 vertices

vn 0.3827 -0.0000 -0.9239
vn -0.3827 -0.0000 -0.9239
vn -0.9239 0.0000 -0.3827
vn -0.9239 0.0000 0.3827
vn -0.3827 -0.0000 0.9239
vn 0.3827 -0.0000 0.9239
vn 0.9188 -0.0078 -0.3947
vn 0.3827 0.0000 -0.9239
vn -0.3827 0.0000 -0.9239
vn -0.3827 0.0000 0.9239
vn 0.3827 0.0000 0.9239
vn 0.9188 -0.0078 0.3947
vn 0.9239 -0.0000 -0.3827
vn -0.9239 -0.0000 0.3827
vn 0.9239 0.0000 0.3827
vn 0.9239 0.0000 -0.3827
vn -0.9181 0.0070 -0.3963
vn -0.3690 0.0070 0.9294
vn 0.5330 -0.8400 0.1017
vn -0.4499 -0.8734 0.1864
vn 0.1863 -0.8734 -0.4499
vn 0.1682 -0.8982 0.4062
vn -0.4062 -0.8982 -0.1682
vn 0.0000 -1.0000 -0.0000
vn 0.8664 -0.0170 -0.4990
vn 0.1908 -0.8986 -0.3952
vn 0.1908 -0.8986 0.3952
vn 0.8663 -0.0225 0.4990
vn 0.0000 1.0000 -0.0000
vn -0.8664 0.0170 0.4990
vn 0.0000 1.0000 0.0000
vn -0.0000 1.0000 0.0000
vn 0.2305 0.7982 0.5565
vn -0.0000 1.0000 -0.0000
vn -0.9654 0.0248 0.2597
# 35 vertex normals

vt -0.1250 0.0000 1.0000
vt 0.0000 0.0000 1.0000
vt 0.0000 0.2000 1.0000
vt -0.1250 0.2000 1.0000
vt 0.1250 0.0000 1.0000
vt 0.1250 0.2000 1.0000
vt 0.2500 0.0000 1.0000
vt 0.2500 0.2000 1.0000
vt 0.3750 0.0000 1.0000
vt 0.3750 0.2000 1.0000
vt 0.5000 0.0000 1.0000
vt 0.5000 0.2000 1.0000
vt 0.6250 0.0000 1.0000
vt 0.6250 0.2000 1.0000
vt 0.7500 0.2000 1.0000
vt 0.8750 0.2000 1.0000
vt 0.8750 0.4000 1.0000
vt 0.7500 0.4000 1.0000
vt 0.0000 0.4000 1.0000
vt -0.1250 0.4000 1.0000
vt 0.1250 0.4000 1.0000
vt 0.2500 0.4000 1.0000
vt 0.3750 0.4000 1.0000
vt 0.5000 0.4000 1.0000
vt 0.6250 0.4000 1.0000
vt 0.8750 0.6000 1.0000
vt 0.7500 0.6000 1.0000
vt 0.0000 0.6000 1.0000
vt -0.1250 0.6000 1.0000
vt 0.1250 0.6000 1.0000
vt 0.2500 0.6000 1.0000
vt 0.3750 0.6000 1.0000
vt 0.5000 0.6000 1.0000
vt 0.6250 0.6000 1.0000
vt 0.8750 0.8000 1.0000
vt 0.7500 0.8000 1.0000
vt 0.0000 0.8000 1.0000
vt -0.1250 0.8000 1.0000
vt 0.1250 0.8000 1.0000
vt 0.2500 0.8000 1.0000
vt 0.3750 0.8000 1.0000
vt 0.5000 0.8000 1.0000
vt 0.6250 0.8000 1.0000
vt 0.8750 1.0000 1.0000
vt 0.7500 1.0000 1.0000
vt 0.0000 1.0000 1.0000
vt -0.1250 1.0000 1.0000
vt 0.1250 1.0000 1.0000
vt 0.6250 1.0000 1.0000
vt 0.5000 1.0000 1.0000
# 50 texture coords

o wood
g wood
s off
f 1/1/1 2/2/1 3/3/1 4/4/1 
f 2/2/2 5/5/2 6/6/2 3/3/2 
f 5/5/3 7/7/3 8/8/3 6/6/3 
f 7/7/4 9/9/4 10/10/4 8/8/4 
f 9/9/5 11/11/5 12/12/5 10/10/5 
f 11/11/6 13/13/6 14/14/6 12/12/6 
f 15/15/7 4/16/7 16/17/7 17/18/7 
f 4/4/8 3/3/8 18/19/8 16/20/8 
f 3/3/9 6/6/9 19/21/9 18/19/9 
f 6/6/3 8/8/3 20/22/3 19/21/3 
f 8/8/4 10/10/4 21/23/4 20/22/4 
f 10/10/10 12/12/10 22/24/10 21/23/10 
f 12/12/11 14/14/11 23/25/11 22/24/11 
f 14/14/12 15/15/12 17/18/12 23/25/12 
f 17/18/13 16/17/13 24/26/13 25/27/13 
f 16/20/8 18/19/8 26/28/8 24/29/8 
f 18/19/9 19/21/9 27/30/9 26/28/9 
f 19/21/3 20/22/3 28/31/3 27/30/3 
f 20/22/14 21/23/14 29/32/14 28/31/14 
f 21/23/10 22/24/10 30/33/10 29/32/10 
f 22/24/11 23/25/11 31/34/11 30/33/11 
f 23/25/15 17/18/15 25/27/15 31/34/15 
f 25/27/16 24/26/16 32/35/16 33/36/16 
f 24/29/8 26/28/8 34/37/8 32/38/8 
f 26/28/2 27/30/2 35/39/2 34/37/2 
f 27/30/17 28/31/17 36/40/17 35/39/17 
f 28/31/14 29/32/14 37/41/14 36/40/14 
f 29/32/18 30/33/18 38/42/18 37/41/18 
f 30/33/6 31/34/6 39/43/6 38/42/6 
f 31/34/15 25/27/15 33/36/15 39/43/15 
f 33/36/16 32/35/16 40/44/16 41/45/16 
f 32/38/1 34/37/1 42/46/1 40/47/1 
f 34/37/9 35/39/9 43/48/9 42/46/9 
f 38/42/11 39/43/11 44/49/11 45/50/11 
f 39/43/15 33/36/15 41/45/15 44/49/15 
f 46/1/19 47/2/19 2/2/19 1/1/19 
f 47/2/20 48/5/20 5/5/20 2/2/20 
f 48/5/21 49/7/21 7/7/21 5/5/21 
f 49/7/22 50/9/22 9/9/22 7/7/22 
f 50/9/23 51/11/23 11/11/23 9/9/23 
f 51/11/24 52/13/24 13/13/24 11/11/24 
f 52/13/25 53/14/25 14/14/25 13/13/25 
f 53/14/26 54/15/26 15/15/26 14/14/26 
f 54/15/27 55/16/27 4/16/27 15/15/27 
f 55/4/28 46/1/28 1/1/28 4/4/28 
f 56/40/29 57/39/29 35/39/29 36/40/29 
f 57/39/30 58/48/30 43/48/30 35/39/30 
f 58/48/31 59/46/31 42/46/31 43/48/31 
f 59/46/32 60/47/32 40/47/32 42/46/32 
f 60/44/33 61/45/33 41/45/33 40/44/33 
f 61/45/34 62/49/34 44/49/34 41/45/34 
f 62/49/34 63/50/34 45/50/34 44/49/34 
f 63/50/35 64/42/35 38/42/35 45/50/35 
f 64/42/29 65/41/29 37/41/29 38/42/29 
f 65/41/29 56/40/29 36/40/29 37/41/29 
# 55 polygons

#
# object wood_1
#

v  0.1058 -0.6243 0.0251
v  0.0926 -0.6243 -0.0571
v  0.0926 -0.5162 -0.0571
v  0.1058 -0.2965 0.0251
v  0.0571 -0.5728 0.0926
v  0.0571 -0.6243 0.0926
v  -0.1058 0.3426 -0.0251
v  -0.1058 0.6230 -0.0251
v  -0.0571 0.6230 -0.0926
v  -0.0571 0.5715 -0.0926
v  -0.0926 0.3426 0.0571
v  -0.0926 0.6230 0.0571
v  -0.0251 0.3426 0.1058
v  -0.0251 0.4993 0.1058
v  -0.0251 -0.5728 0.1058
v  -0.0251 -0.6243 0.1058
v  -0.0926 -0.5260 0.0571
v  -0.0926 -0.6243 0.0571
v  -0.1058 -0.5728 -0.0251
v  -0.1058 -0.6243 -0.0251
v  -0.0571 -0.5195 -0.0926
v  -0.0571 -0.6243 -0.0926
v  0.0251 -0.5728 -0.1058
v  0.0251 -0.6243 -0.1058
v  0.1058 0.4993 0.0251
v  0.0926 0.5715 -0.0571
v  0.0926 0.6230 -0.0571
v  0.1058 0.6230 0.0251
v  0.0251 0.5715 -0.1058
v  0.0251 0.6230 -0.1058
v  0.0571 0.4993 0.0926
v  0.0571 0.6230 0.0926
v  -0.0251 0.6230 0.1058
v  0.0000 -0.6243 0.0000
v  -0.0000 0.6230 0.0000
v  -0.0571 0.3426 -0.0926
v  0.0926 -0.3439 -0.0571
v  0.0571 -0.3439 0.0926
# 38 vertices

vn 0.7554 -0.6303 0.1793
vn 0.6609 -0.6303 -0.4073
vn 0.9436 0.0000 -0.3311
vn 0.9730 0.0000 0.2310
vn 0.6362 0.0000 0.7716
vn 0.4073 -0.6303 0.6609
vn -0.9730 -0.0000 -0.2310
vn -0.7554 0.6303 -0.1793
vn -0.4073 0.6303 -0.6609
vn -0.6362 0.0000 -0.7716
vn -0.0000 1.0000 0.0000
vn -0.6070 -0.7656 -0.2133
vn -0.6609 0.6303 0.4073
vn -0.5857 -0.0000 0.8105
vn -0.3619 0.0000 0.9322
vn -0.2870 -0.0000 0.9579
vn -0.1793 -0.6303 0.7554
vn -0.8513 -0.0000 0.5247
vn -0.6609 -0.6303 0.4073
vn -0.9716 -0.0000 -0.2365
vn -0.7554 -0.6303 -0.1793
vn -0.5247 -0.0000 -0.8513
vn -0.4073 -0.6303 -0.6609
vn 0.2335 0.0000 -0.9724
vn 0.1793 -0.6303 -0.7554
vn 0.9379 0.0000 0.3470
vn 0.8890 0.0000 -0.4580
vn 0.6609 0.6303 -0.4073
vn 0.7554 0.6303 0.1793
vn 0.2310 -0.0000 -0.9730
vn 0.1793 0.6303 -0.7554
vn 0.5247 -0.0000 0.8513
vn 0.4073 0.6303 0.6609
vn -0.1793 0.6302 0.7554
vn 0.0000 -1.0000 -0.0000
vn -0.8105 -0.0000 -0.5857
vn 0.9873 0.0000 -0.1589
vn 0.8105 0.0000 0.5857
# 38 vertex normals

vt 0.7500 0.0000 1.0000
vt 0.8750 0.0000 1.0000
vt 0.7500 0.2000 1.0000
vt 0.6250 0.0000 1.0000
vt 0.6250 -0.0373 1.0000
vt 0.7500 -0.0373 1.0000
vt 0.2500 0.8000 1.0000
vt 0.2500 1.0450 1.0000
vt 0.1250 1.0450 1.0000
vt 0.1250 1.0000 1.0000
vt 0.3750 0.8000 1.0000
vt 0.3750 1.0450 1.0000
vt 0.5000 0.8000 1.0000
vt 0.5000 1.0000 1.0000
vt 0.4786 0.0000 0.4142
vt 0.2197 0.0000 -0.4142
vt 0.1250 0.0000 -1.0000
vt 0.2500 0.0000 -1.0000
vt 0.5214 0.0000 -0.4142
vt 0.7803 0.0000 0.4142
vt 0.7500 1.0000 1.0000
vt 0.8750 1.0000 1.0000
vt 0.7803 1.0000 0.4142
vt 0.5214 1.0000 -0.4142
vt 0.2197 1.0000 -0.4142
vt 0.6250 1.0000 1.0000
vt 0.4619 0.0000 -0.2357
vt 0.6143 0.0000 0.7071
vt 0.4741 1.0000 0.0976
vt 0.6509 1.0000 0.0000
vt 0.2500 1.0000 -1.0000
vt 0.1250 1.0000 -1.0000
vt 0.5000 1.1081 1.0000
vt 0.1250 0.8000 1.0000
vt 0.8750 0.2000 1.0000
vt 0.6250 0.2000 1.0000
# 36 texture coords

o wood_1
g wood_1
s off
f 66/51/36 67/52/37 68/52/38 69/53/39 
f 70/54/40 71/55/41 66/56/36 69/53/39 
f 72/57/42 73/58/43 74/59/44 75/60/45 
f 72/57/42 76/61/46 76/61/47 77/62/48 73/58/43 
f 76/61/46 78/63/49 79/64/50 76/61/47 
f 70/65/40 80/66/51 81/66/52 71/65/41 
f 80/66/51 82/67/53 83/67/54 81/66/52 
f 82/67/53 84/68/55 85/68/56 83/67/54 
f 84/68/55 86/69/57 87/69/58 85/68/56 
f 86/69/57 88/70/59 89/70/60 87/69/58 
f 88/70/59 68/52/38 67/52/37 89/70/60 
f 90/71/61 91/72/62 92/72/63 93/71/64 
f 91/72/62 94/73/65 95/73/66 92/72/63 
f 94/73/65 75/74/45 74/74/44 95/73/66 
f 79/75/50 96/76/67 97/76/68 98/75/69 
f 96/76/67 90/71/61 93/71/64 97/76/68 
f 67/52/37 66/51/36 99/77/70 
f 66/51/36 71/65/41 99/78/70 
f 71/65/41 81/66/52 99/78/70 
f 81/66/52 83/67/54 99/77/70 
f 83/67/54 85/68/56 99/77/70 
f 85/68/56 87/69/58 99/77/70 
f 87/69/58 89/70/60 99/77/70 
f 89/70/60 67/52/37 99/77/70 
f 93/71/64 92/72/63 100/79/46 
f 92/72/63 95/73/66 100/79/46 
f 95/73/66 74/74/44 100/80/46 
f 74/74/44 73/81/43 100/80/46 
f 73/81/43 77/82/48 100/79/46 
f 77/82/48 98/75/69 100/79/46 
f 98/75/69 97/76/68 100/79/46 
f 97/76/68 93/71/64 100/79/46 
f 79/64/50 98/83/69 77/62/48 76/61/47 
f 75/60/45 101/84/71 72/57/42 
f 68/52/38 102/85/72 69/53/39 
f 69/53/39 103/86/73 70/54/40 
# 17 polygons - 19 triangles

