# 3ds Max Wavefront OBJ Exporter v0.97b - (c)2007 guruware
# File Created: 19.02.2022 23:15:08

#
# object Interior_wood
#

v  0.0036 -0.0215 0.0009
v  0.0032 -0.0215 -0.0020
v  0.0032 -0.0178 -0.0020
v  0.0036 -0.0102 0.0009
v  0.0020 -0.0197 0.0032
v  0.0020 -0.0215 0.0032
v  -0.0036 0.0118 -0.0009
v  -0.0036 0.0215 -0.0009
v  -0.0020 0.0215 -0.0032
v  -0.0020 0.0197 -0.0032
v  -0.0032 0.0118 0.0020
v  -0.0032 0.0215 0.0020
v  -0.0009 0.0118 0.0036
v  -0.0009 0.0172 0.0036
v  -0.0009 -0.0197 0.0036
v  -0.0009 -0.0215 0.0036
v  -0.0032 -0.0181 0.0020
v  -0.0032 -0.0215 0.0020
v  -0.0036 -0.0197 -0.0009
v  -0.0036 -0.0215 -0.0009
v  -0.0020 -0.0179 -0.0032
v  -0.0020 -0.0215 -0.0032
v  0.0009 -0.0197 -0.0036
v  0.0009 -0.0215 -0.0036
v  0.0036 0.0172 0.0009
v  0.0032 0.0197 -0.0020
v  0.0032 0.0215 -0.0020
v  0.0036 0.0215 0.0009
v  0.0009 0.0197 -0.0036
v  0.0009 0.0215 -0.0036
v  0.0020 0.0172 0.0032
v  0.0020 0.0215 0.0032
v  -0.0009 0.0215 0.0036
v  0.0000 -0.0215 0.0000
v  -0.0000 0.0215 0.0000
v  -0.0020 0.0118 -0.0032
v  0.0032 -0.0118 -0.0020
v  0.0020 -0.0118 0.0032
v  0.0038 -0.0178 -0.0028
v  0.0011 -0.0197 -0.0047
v  0.0011 -0.0118 -0.0047
v  0.0040 -0.0118 -0.0026
v  -0.0026 -0.0179 -0.0041
v  -0.0026 -0.0118 -0.0041
v  -0.0047 -0.0197 -0.0011
v  -0.0047 -0.0118 -0.0011
v  -0.0041 -0.0181 0.0026
v  -0.0041 -0.0118 0.0026
v  -0.0011 -0.0197 0.0047
v  -0.0011 -0.0118 0.0047
v  0.0021 -0.0197 0.0042
v  0.0024 -0.0118 0.0042
v  0.0047 -0.0102 0.0011
v  0.0041 -0.0039 -0.0026
v  0.0047 -0.0039 0.0011
v  0.0011 -0.0039 -0.0047
v  -0.0026 -0.0039 -0.0041
v  -0.0047 -0.0039 -0.0011
v  -0.0041 -0.0039 0.0026
v  -0.0011 -0.0039 0.0047
v  0.0026 -0.0039 0.0041
v  0.0041 0.0039 -0.0026
v  0.0047 0.0039 0.0011
v  0.0011 0.0039 -0.0047
v  -0.0026 0.0039 -0.0041
v  -0.0047 0.0039 -0.0011
v  -0.0041 0.0039 0.0026
v  -0.0011 0.0039 0.0047
v  0.0026 0.0039 0.0041
v  0.0041 0.0118 -0.0026
v  0.0047 0.0118 0.0011
v  0.0011 0.0118 -0.0047
v  -0.0024 0.0118 -0.0042
v  -0.0047 0.0118 -0.0011
v  -0.0041 0.0118 0.0026
v  -0.0010 0.0118 0.0047
v  0.0026 0.0118 0.0041
v  0.0041 0.0197 -0.0026
v  0.0047 0.0172 0.0011
v  0.0011 0.0197 -0.0047
v  -0.0021 0.0197 -0.0042
v  0.0026 0.0172 0.0041
v  -0.0007 0.0172 0.0047
# 83 vertices

vn 0.9239 0.0000 -0.3827
vn 0.9239 0.0000 0.3827
vn -0.9239 0.0000 -0.3827
vn -0.9239 -0.0000 0.3827
vn -0.3827 -0.0000 0.9239
vn 0.3827 0.0000 0.9239
vn -0.9239 -0.0000 -0.3827
vn -0.3827 -0.0000 -0.9239
vn 0.3827 0.0000 -0.9239
vn -0.3827 0.0000 -0.9239
vn 0.3827 -0.0000 0.9239
vn 0.9239 -0.0000 0.3827
vn -0.0000 -1.0000 0.0000
vn -0.0000 -1.0000 -0.0000
vn 0.0000 -1.0000 -0.0000
vn 0.0000 -1.0000 0.0000
vn 0.0000 1.0000 -0.0000
vn -0.0000 1.0000 -0.0000
vn -0.0000 1.0000 0.0000
vn 0.0000 1.0000 0.0000
vn -0.3827 0.0000 0.9239
vn 0.3827 -0.0000 -0.9239
vn -0.9239 0.0000 0.3827
vn 0.9188 -0.0078 -0.3947
vn 0.9188 -0.0078 0.3947
vn 0.9239 -0.0000 -0.3827
vn -0.9181 0.0070 -0.3963
vn -0.3690 0.0070 0.9294
vn 0.5330 -0.8400 0.1017
vn -0.4499 -0.8734 0.1864
vn 0.1863 -0.8734 -0.4499
vn 0.1682 -0.8982 0.4062
vn -0.4062 -0.8982 -0.1682
vn 0.8664 -0.0170 -0.4990
vn 0.1908 -0.8986 -0.3952
vn 0.1908 -0.8986 0.3952
vn 0.8663 -0.0225 0.4990
vn -0.8664 0.0170 0.4990
vn 0.2305 0.7982 0.5565
vn -0.9654 0.0248 0.2597
# 40 vertex normals

vt 0.7500 0.0000 1.0000
vt 0.8750 0.0000 1.0000
vt 0.7500 0.2000 1.0000
vt 0.6250 0.0000 1.0000
vt 0.6250 -0.0373 1.0000
vt 0.7500 -0.0373 1.0000
vt 0.2500 0.8000 1.0000
vt 0.2500 1.0450 1.0000
vt 0.1250 1.0450 1.0000
vt 0.1250 1.0000 1.0000
vt 0.3750 0.8000 1.0000
vt 0.3750 1.0450 1.0000
vt 0.5000 0.8000 1.0000
vt 0.5000 1.0000 1.0000
vt 0.4786 0.0000 0.4142
vt 0.2197 0.0000 -0.4142
vt 0.1250 0.0000 -1.0000
vt 0.2500 0.0000 -1.0000
vt 0.5214 0.0000 -0.4142
vt 0.7803 0.0000 0.4142
vt 0.7500 1.0000 1.0000
vt 0.8750 1.0000 1.0000
vt 0.7803 1.0000 0.4142
vt 0.5214 1.0000 -0.4142
vt 0.2197 1.0000 -0.4142
vt 0.6250 1.0000 1.0000
vt 0.4619 0.0000 -0.2357
vt 0.6143 0.0000 0.7071
vt 0.4741 1.0000 0.0976
vt 0.6509 1.0000 0.0000
vt 0.2500 1.0000 -1.0000
vt 0.1250 1.0000 -1.0000
vt 0.5000 1.1081 1.0000
vt 0.1250 0.8000 1.0000
vt 0.8750 0.2000 1.0000
vt 0.6250 0.2000 1.0000
vt -0.1250 0.0000 1.0000
vt 0.0000 0.0000 1.0000
vt 0.0000 0.2000 1.0000
vt -0.1250 0.2000 1.0000
vt 0.1250 0.0000 1.0000
vt 0.1250 0.2000 1.0000
vt 0.2500 0.0000 1.0000
vt 0.2500 0.2000 1.0000
vt 0.3750 0.0000 1.0000
vt 0.3750 0.2000 1.0000
vt 0.5000 0.0000 1.0000
vt 0.5000 0.2000 1.0000
vt 0.8750 0.4000 1.0000
vt 0.7500 0.4000 1.0000
vt 0.0000 0.4000 1.0000
vt -0.1250 0.4000 1.0000
vt 0.1250 0.4000 1.0000
vt 0.2500 0.4000 1.0000
vt 0.3750 0.4000 1.0000
vt 0.5000 0.4000 1.0000
vt 0.6250 0.4000 1.0000
vt 0.8750 0.6000 1.0000
vt 0.7500 0.6000 1.0000
vt 0.0000 0.6000 1.0000
vt -0.1250 0.6000 1.0000
vt 0.1250 0.6000 1.0000
vt 0.2500 0.6000 1.0000
vt 0.3750 0.6000 1.0000
vt 0.5000 0.6000 1.0000
vt 0.6250 0.6000 1.0000
vt 0.8750 0.8000 1.0000
vt 0.7500 0.8000 1.0000
vt 0.0000 0.8000 1.0000
vt -0.1250 0.8000 1.0000
vt 0.6250 0.8000 1.0000
vt 0.0000 1.0000 1.0000
vt -0.1250 1.0000 1.0000
# 73 texture coords

o Interior_wood
g Interior_wood
s off
f 1/1/1 2/2/1 3/2/1 4/3/1 
f 5/4/2 6/5/2 1/6/2 4/3/2 
f 7/7/3 8/8/3 9/9/3 10/10/3 
f 7/7/4 11/11/4 11/11/4 12/12/4 8/8/4 
f 11/11/5 13/13/5 14/14/5 11/11/5 
f 5/15/6 15/16/6 16/16/6 6/15/6 
f 15/16/5 17/17/5 18/17/5 16/16/5 
f 17/17/4 19/18/4 20/18/4 18/17/4 
f 19/18/7 21/19/7 22/19/7 20/18/7 
f 21/19/8 23/20/8 24/20/8 22/19/8 
f 23/20/9 3/2/9 2/2/9 24/20/9 
f 25/21/1 26/22/1 27/22/1 28/21/1 
f 26/22/9 29/23/9 30/23/9 27/22/9 
f 29/23/10 10/24/10 9/24/10 30/23/10 
f 14/25/11 31/26/11 32/26/11 33/25/11 
f 31/26/12 25/21/12 28/21/12 32/26/12 
f 2/2/13 1/1/13 34/27/13 
f 1/1/14 6/15/14 34/28/14 
f 6/15/14 16/16/14 34/28/14 
f 16/16/15 18/17/15 34/27/15 
f 18/17/15 20/18/15 34/27/15 
f 20/18/16 22/19/16 34/27/16 
f 22/19/16 24/20/16 34/27/16 
f 24/20/13 2/2/13 34/27/13 
f 28/21/17 27/22/17 35/29/17 
f 27/22/18 30/23/18 35/29/18 
f 30/23/18 9/24/18 35/30/18 
f 9/24/19 8/31/19 35/30/19 
f 8/31/19 12/32/19 35/29/19 
f 12/32/19 33/25/19 35/29/19 
f 33/25/20 32/26/20 35/29/20 
f 32/26/20 28/21/20 35/29/20 
f 14/14/21 33/33/21 12/12/21 11/11/21 
f 10/10/3 36/34/3 7/7/3 
f 3/2/1 37/35/1 4/3/1 
f 4/3/12 38/36/12 5/4/12 
f 39/37/22 40/38/22 41/39/22 42/40/22 
f 40/38/8 43/41/8 44/42/8 41/39/8 
f 43/41/3 45/43/3 46/44/3 44/42/3 
f 45/43/23 47/45/23 48/46/23 46/44/23 
f 47/45/5 49/47/5 50/48/5 48/46/5 
f 49/47/11 51/4/11 52/36/11 50/48/11 
f 53/3/24 42/35/24 54/49/24 55/50/24 
f 42/40/9 41/39/9 56/51/9 54/52/9 
f 41/39/10 44/42/10 57/53/10 56/51/10 
f 44/42/3 46/44/3 58/54/3 57/53/3 
f 46/44/23 48/46/23 59/55/23 58/54/23 
f 48/46/21 50/48/21 60/56/21 59/55/21 
f 50/48/6 52/36/6 61/57/6 60/56/6 
f 52/36/25 53/3/25 55/50/25 61/57/25 
f 55/50/26 54/49/26 62/58/26 63/59/26 
f 54/52/9 56/51/9 64/60/9 62/61/9 
f 56/51/10 57/53/10 65/62/10 64/60/10 
f 57/53/3 58/54/3 66/63/3 65/62/3 
f 58/54/4 59/55/4 67/64/4 66/63/4 
f 59/55/21 60/56/21 68/65/21 67/64/21 
f 60/56/6 61/57/6 69/66/6 68/65/6 
f 61/57/2 55/50/2 63/59/2 69/66/2 
f 63/59/1 62/58/1 70/67/1 71/68/1 
f 62/61/9 64/60/9 72/69/9 70/70/9 
f 64/60/8 65/62/8 73/34/8 72/69/8 
f 65/62/27 66/63/27 74/7/27 73/34/27 
f 66/63/4 67/64/4 75/11/4 74/7/4 
f 67/64/28 68/65/28 76/13/28 75/11/28 
f 68/65/11 69/66/11 77/71/11 76/13/11 
f 69/66/2 63/59/2 71/68/2 77/71/2 
f 71/68/1 70/67/1 78/22/1 79/21/1 
f 70/70/22 72/69/22 80/72/22 78/73/22 
f 72/69/10 73/34/10 81/10/10 80/72/10 
f 76/13/6 77/71/6 82/26/6 83/14/6 
f 77/71/2 71/68/2 79/21/2 82/26/2 
f 3/37/29 23/38/29 40/38/29 39/37/29 
f 23/38/30 21/41/30 43/41/30 40/38/30 
f 21/41/31 19/43/31 45/43/31 43/41/31 
f 19/43/32 17/45/32 47/45/32 45/43/32 
f 17/45/33 15/47/33 49/47/33 47/45/33 
f 15/47/15 5/4/15 51/4/15 49/47/15 
f 5/4/34 38/36/34 52/36/34 51/4/34 
f 38/36/35 4/3/35 53/3/35 52/36/35 
f 4/3/36 37/35/36 42/35/36 53/3/36 
f 37/40/37 3/37/37 39/37/37 42/40/37 
f 7/7/17 36/34/17 73/34/17 74/7/17 
f 36/34/38 10/10/38 81/10/38 73/34/38 
f 10/10/20 29/72/20 80/72/20 81/10/20 
f 29/72/19 26/73/19 78/73/19 80/72/19 
f 26/22/39 25/21/39 79/21/39 78/22/39 
f 25/21/18 31/26/18 82/26/18 79/21/18 
f 31/26/18 14/14/18 83/14/18 82/26/18 
f 14/14/40 13/13/40 76/13/40 83/14/40 
f 13/13/17 11/11/17 75/11/17 76/13/17 
f 11/11/17 7/7/17 74/7/17 75/11/17 
# 72 polygons - 19 triangles

